G04 EAGLE Gerber RS-274X export*
G75*
%MOMM*%
%FSLAX34Y34*%
%LPD*%
%INTop Copper*%
%IPPOS*%
%AMOC8*
5,1,8,0,0,1.08239X$1,22.5*%
G01*
%ADD10C,0.101600*%
%ADD11R,1.000000X1.100000*%
%ADD12R,1.651000X1.000000*%
%ADD13R,1.550000X0.600000*%
%ADD14R,1.800000X1.200000*%
%ADD15C,0.609600*%


D10*
X61468Y56444D02*
X70273Y56444D01*
X67733Y41204D02*
X58928Y41204D01*
X63331Y36802D02*
X63331Y45607D01*
X30988Y124968D02*
X30988Y138176D01*
X34657Y138176D01*
X34777Y138174D01*
X34897Y138168D01*
X35017Y138158D01*
X35136Y138145D01*
X35255Y138127D01*
X35373Y138106D01*
X35490Y138080D01*
X35607Y138051D01*
X35722Y138018D01*
X35836Y137981D01*
X35949Y137941D01*
X36061Y137897D01*
X36171Y137849D01*
X36280Y137798D01*
X36387Y137743D01*
X36492Y137684D01*
X36594Y137623D01*
X36695Y137558D01*
X36794Y137489D01*
X36891Y137418D01*
X36985Y137343D01*
X37076Y137266D01*
X37165Y137185D01*
X37251Y137101D01*
X37335Y137015D01*
X37416Y136926D01*
X37493Y136835D01*
X37568Y136741D01*
X37639Y136644D01*
X37708Y136545D01*
X37773Y136444D01*
X37834Y136342D01*
X37893Y136237D01*
X37948Y136130D01*
X37999Y136021D01*
X38047Y135911D01*
X38091Y135799D01*
X38131Y135686D01*
X38168Y135572D01*
X38201Y135457D01*
X38230Y135340D01*
X38256Y135223D01*
X38277Y135105D01*
X38295Y134986D01*
X38308Y134867D01*
X38318Y134747D01*
X38324Y134627D01*
X38326Y134507D01*
X38326Y128637D01*
X38324Y128517D01*
X38318Y128397D01*
X38308Y128277D01*
X38295Y128158D01*
X38277Y128039D01*
X38256Y127921D01*
X38230Y127804D01*
X38201Y127687D01*
X38168Y127572D01*
X38131Y127458D01*
X38091Y127345D01*
X38047Y127233D01*
X37999Y127123D01*
X37948Y127014D01*
X37893Y126907D01*
X37834Y126803D01*
X37773Y126700D01*
X37708Y126599D01*
X37639Y126500D01*
X37568Y126403D01*
X37493Y126309D01*
X37416Y126218D01*
X37335Y126129D01*
X37251Y126043D01*
X37165Y125959D01*
X37076Y125878D01*
X36985Y125801D01*
X36891Y125726D01*
X36794Y125655D01*
X36695Y125586D01*
X36594Y125521D01*
X36492Y125460D01*
X36387Y125401D01*
X36280Y125346D01*
X36171Y125295D01*
X36061Y125247D01*
X35949Y125203D01*
X35836Y125163D01*
X35722Y125126D01*
X35607Y125093D01*
X35490Y125064D01*
X35373Y125038D01*
X35255Y125017D01*
X35136Y124999D01*
X35017Y124986D01*
X34897Y124976D01*
X34777Y124970D01*
X34657Y124968D01*
X30988Y124968D01*
X45325Y124968D02*
X45325Y138176D01*
X43857Y124968D02*
X46792Y124968D01*
X46792Y138176D02*
X43857Y138176D01*
X52324Y138176D02*
X52324Y124968D01*
X59662Y124968D02*
X52324Y138176D01*
X59662Y138176D02*
X59662Y124968D01*
X231648Y54356D02*
X231648Y41148D01*
X231648Y54356D02*
X235317Y54356D01*
X235437Y54354D01*
X235557Y54348D01*
X235677Y54338D01*
X235796Y54325D01*
X235915Y54307D01*
X236033Y54286D01*
X236150Y54260D01*
X236267Y54231D01*
X236382Y54198D01*
X236496Y54161D01*
X236609Y54121D01*
X236721Y54077D01*
X236831Y54029D01*
X236940Y53978D01*
X237047Y53923D01*
X237152Y53864D01*
X237254Y53803D01*
X237355Y53738D01*
X237454Y53669D01*
X237551Y53598D01*
X237645Y53523D01*
X237736Y53446D01*
X237825Y53365D01*
X237911Y53281D01*
X237995Y53195D01*
X238076Y53106D01*
X238153Y53015D01*
X238228Y52921D01*
X238299Y52824D01*
X238368Y52725D01*
X238433Y52624D01*
X238494Y52522D01*
X238553Y52417D01*
X238608Y52310D01*
X238659Y52201D01*
X238707Y52091D01*
X238751Y51979D01*
X238791Y51866D01*
X238828Y51752D01*
X238861Y51637D01*
X238890Y51520D01*
X238916Y51403D01*
X238937Y51285D01*
X238955Y51166D01*
X238968Y51047D01*
X238978Y50927D01*
X238984Y50807D01*
X238986Y50687D01*
X238986Y44817D01*
X238984Y44697D01*
X238978Y44577D01*
X238968Y44457D01*
X238955Y44338D01*
X238937Y44219D01*
X238916Y44101D01*
X238890Y43984D01*
X238861Y43867D01*
X238828Y43752D01*
X238791Y43638D01*
X238751Y43525D01*
X238707Y43413D01*
X238659Y43303D01*
X238608Y43194D01*
X238553Y43087D01*
X238494Y42983D01*
X238433Y42880D01*
X238368Y42779D01*
X238299Y42680D01*
X238228Y42583D01*
X238153Y42489D01*
X238076Y42398D01*
X237995Y42309D01*
X237911Y42223D01*
X237825Y42139D01*
X237736Y42058D01*
X237645Y41981D01*
X237551Y41906D01*
X237454Y41835D01*
X237355Y41766D01*
X237254Y41701D01*
X237152Y41640D01*
X237047Y41581D01*
X236940Y41526D01*
X236831Y41475D01*
X236721Y41427D01*
X236609Y41383D01*
X236496Y41343D01*
X236382Y41306D01*
X236267Y41273D01*
X236150Y41244D01*
X236033Y41218D01*
X235915Y41197D01*
X235796Y41179D01*
X235677Y41166D01*
X235557Y41156D01*
X235437Y41150D01*
X235317Y41148D01*
X231648Y41148D01*
X244876Y44817D02*
X244876Y50687D01*
X244878Y50807D01*
X244884Y50927D01*
X244894Y51047D01*
X244907Y51166D01*
X244925Y51285D01*
X244946Y51403D01*
X244972Y51520D01*
X245001Y51637D01*
X245034Y51752D01*
X245071Y51866D01*
X245111Y51979D01*
X245155Y52091D01*
X245203Y52201D01*
X245254Y52310D01*
X245309Y52417D01*
X245368Y52521D01*
X245429Y52624D01*
X245494Y52725D01*
X245563Y52824D01*
X245634Y52921D01*
X245709Y53015D01*
X245786Y53106D01*
X245867Y53195D01*
X245951Y53281D01*
X246037Y53365D01*
X246126Y53446D01*
X246217Y53523D01*
X246311Y53598D01*
X246408Y53669D01*
X246507Y53738D01*
X246608Y53803D01*
X246711Y53864D01*
X246815Y53923D01*
X246922Y53978D01*
X247031Y54029D01*
X247141Y54077D01*
X247253Y54121D01*
X247366Y54161D01*
X247480Y54198D01*
X247595Y54231D01*
X247712Y54260D01*
X247829Y54286D01*
X247947Y54307D01*
X248066Y54325D01*
X248185Y54338D01*
X248305Y54348D01*
X248425Y54354D01*
X248545Y54356D01*
X248665Y54354D01*
X248785Y54348D01*
X248905Y54338D01*
X249024Y54325D01*
X249143Y54307D01*
X249261Y54286D01*
X249378Y54260D01*
X249495Y54231D01*
X249610Y54198D01*
X249724Y54161D01*
X249837Y54121D01*
X249949Y54077D01*
X250059Y54029D01*
X250168Y53978D01*
X250275Y53923D01*
X250380Y53864D01*
X250482Y53803D01*
X250583Y53738D01*
X250682Y53669D01*
X250779Y53598D01*
X250873Y53523D01*
X250964Y53446D01*
X251053Y53365D01*
X251139Y53281D01*
X251223Y53195D01*
X251304Y53106D01*
X251381Y53015D01*
X251456Y52921D01*
X251527Y52824D01*
X251596Y52725D01*
X251661Y52624D01*
X251722Y52522D01*
X251781Y52417D01*
X251836Y52310D01*
X251887Y52201D01*
X251935Y52091D01*
X251979Y51979D01*
X252019Y51866D01*
X252056Y51752D01*
X252089Y51637D01*
X252118Y51520D01*
X252144Y51403D01*
X252165Y51285D01*
X252183Y51166D01*
X252196Y51047D01*
X252206Y50927D01*
X252212Y50807D01*
X252214Y50687D01*
X252214Y44817D01*
X252212Y44697D01*
X252206Y44577D01*
X252196Y44457D01*
X252183Y44338D01*
X252165Y44219D01*
X252144Y44101D01*
X252118Y43984D01*
X252089Y43867D01*
X252056Y43752D01*
X252019Y43638D01*
X251979Y43525D01*
X251935Y43413D01*
X251887Y43303D01*
X251836Y43194D01*
X251781Y43087D01*
X251722Y42983D01*
X251661Y42880D01*
X251596Y42779D01*
X251527Y42680D01*
X251456Y42583D01*
X251381Y42489D01*
X251304Y42398D01*
X251223Y42309D01*
X251139Y42223D01*
X251053Y42139D01*
X250964Y42058D01*
X250873Y41981D01*
X250779Y41906D01*
X250682Y41835D01*
X250583Y41766D01*
X250482Y41701D01*
X250380Y41640D01*
X250275Y41581D01*
X250168Y41526D01*
X250059Y41475D01*
X249949Y41427D01*
X249837Y41383D01*
X249724Y41343D01*
X249610Y41306D01*
X249495Y41273D01*
X249378Y41244D01*
X249261Y41218D01*
X249143Y41197D01*
X249024Y41179D01*
X248905Y41166D01*
X248785Y41156D01*
X248665Y41150D01*
X248545Y41148D01*
X248425Y41150D01*
X248305Y41156D01*
X248185Y41166D01*
X248066Y41179D01*
X247947Y41197D01*
X247829Y41218D01*
X247712Y41244D01*
X247595Y41273D01*
X247480Y41306D01*
X247366Y41343D01*
X247253Y41383D01*
X247141Y41427D01*
X247031Y41475D01*
X246922Y41526D01*
X246815Y41581D01*
X246711Y41640D01*
X246608Y41701D01*
X246507Y41766D01*
X246408Y41835D01*
X246311Y41906D01*
X246217Y41981D01*
X246126Y42058D01*
X246037Y42139D01*
X245951Y42223D01*
X245867Y42309D01*
X245786Y42398D01*
X245709Y42489D01*
X245634Y42583D01*
X245563Y42680D01*
X245494Y42779D01*
X245429Y42880D01*
X245368Y42982D01*
X245309Y43087D01*
X245254Y43194D01*
X245203Y43303D01*
X245155Y43413D01*
X245111Y43525D01*
X245071Y43638D01*
X245034Y43752D01*
X245001Y43867D01*
X244972Y43984D01*
X244946Y44101D01*
X244925Y44219D01*
X244907Y44338D01*
X244894Y44457D01*
X244884Y44577D01*
X244878Y44697D01*
X244876Y44817D01*
D11*
X185420Y72000D03*
X185420Y55000D03*
D12*
X152770Y72900D03*
X101230Y72900D03*
X101230Y104900D03*
X152770Y104900D03*
D13*
X63500Y98900D03*
X63500Y88900D03*
X63500Y78900D03*
D14*
X24750Y111900D03*
X24750Y65900D03*
D13*
X228600Y78900D03*
X228600Y88900D03*
X228600Y98900D03*
D14*
X267350Y65900D03*
X267350Y111900D03*
D15*
X152770Y72900D02*
X140460Y72900D01*
X124460Y88900D02*
X63500Y88900D01*
X124460Y88900D02*
X140460Y72900D01*
X203200Y88900D02*
X228600Y88900D01*
X203200Y88900D02*
X186300Y72000D01*
X185420Y72000D01*
X184520Y72900D02*
X152770Y72900D01*
X184520Y72900D02*
X185420Y72000D01*
X69500Y72900D02*
X63500Y78900D01*
X69500Y72900D02*
X101230Y72900D01*
X198280Y98900D02*
X228600Y98900D01*
X198280Y98900D02*
X190500Y106680D01*
X154550Y106680D01*
X152770Y104900D01*
X68420Y98900D02*
X63500Y98900D01*
X117600Y104900D02*
X134620Y121920D01*
X231140Y121920D01*
X74420Y104900D02*
X68420Y98900D01*
X74420Y104900D02*
X101230Y104900D01*
X117600Y104900D01*
X231140Y121920D02*
X244856Y108204D01*
X209940Y55000D02*
X185420Y55000D01*
X209940Y55000D02*
X210820Y55880D01*
X228440Y78740D02*
X228600Y78900D01*
X228440Y78740D02*
X213360Y78740D01*
X209940Y75320D01*
X209940Y55000D01*
X244856Y82296D02*
X244856Y108204D01*
X244856Y82296D02*
X241300Y78740D01*
X228440Y78740D01*
M02*
