G04 EAGLE Gerber RS-274X export*
G75*
%MOMM*%
%FSLAX34Y34*%
%LPD*%
%INSilkscreen Top*%
%IPPOS*%
%AMOC8*
5,1,8,0,0,1.08239X$1,22.5*%
G01*
%ADD10C,0.127000*%
%ADD11C,0.203200*%
%ADD12C,0.406400*%
%ADD13C,0.152400*%
%ADD14C,0.076200*%


D10*
X198501Y62004D02*
X198501Y60932D01*
X198499Y60867D01*
X198493Y60803D01*
X198483Y60739D01*
X198470Y60675D01*
X198452Y60613D01*
X198431Y60552D01*
X198407Y60492D01*
X198378Y60434D01*
X198346Y60377D01*
X198311Y60323D01*
X198273Y60271D01*
X198231Y60221D01*
X198187Y60174D01*
X198140Y60130D01*
X198090Y60088D01*
X198038Y60050D01*
X197984Y60015D01*
X197927Y59983D01*
X197869Y59954D01*
X197809Y59930D01*
X197748Y59909D01*
X197686Y59891D01*
X197622Y59878D01*
X197558Y59868D01*
X197494Y59862D01*
X197429Y59860D01*
X197429Y59859D02*
X194747Y59859D01*
X194682Y59861D01*
X194618Y59867D01*
X194554Y59877D01*
X194490Y59890D01*
X194428Y59908D01*
X194367Y59929D01*
X194307Y59954D01*
X194248Y59982D01*
X194192Y60014D01*
X194137Y60049D01*
X194085Y60087D01*
X194035Y60129D01*
X193988Y60173D01*
X193944Y60220D01*
X193902Y60270D01*
X193864Y60322D01*
X193829Y60377D01*
X193797Y60433D01*
X193769Y60492D01*
X193744Y60551D01*
X193723Y60613D01*
X193705Y60675D01*
X193692Y60739D01*
X193682Y60803D01*
X193676Y60867D01*
X193674Y60932D01*
X193675Y60932D02*
X193675Y62004D01*
X194747Y64460D02*
X193675Y65800D01*
X198501Y65800D01*
X198501Y64460D02*
X198501Y67141D01*
D11*
X151892Y65278D02*
X151892Y62738D01*
X151384Y62738D01*
X151384Y62789D01*
X101879Y62789D01*
X101879Y65100D01*
X152095Y112090D02*
X152095Y114808D01*
X151587Y114808D01*
X151587Y114833D01*
X101905Y114833D01*
X101905Y112573D01*
X152400Y97790D02*
X152400Y80772D01*
X101600Y80264D02*
X101600Y88900D01*
X101600Y97536D01*
X101600Y88900D02*
X127000Y114300D01*
D12*
X98425Y117475D03*
D10*
X122825Y117475D02*
X122825Y122301D01*
X124165Y122301D01*
X124235Y122299D01*
X124305Y122294D01*
X124375Y122284D01*
X124444Y122272D01*
X124512Y122255D01*
X124579Y122235D01*
X124646Y122212D01*
X124710Y122185D01*
X124774Y122155D01*
X124836Y122121D01*
X124895Y122085D01*
X124953Y122045D01*
X125009Y122002D01*
X125062Y121957D01*
X125113Y121908D01*
X125162Y121857D01*
X125207Y121804D01*
X125250Y121748D01*
X125290Y121690D01*
X125326Y121631D01*
X125360Y121569D01*
X125390Y121505D01*
X125417Y121441D01*
X125440Y121374D01*
X125460Y121307D01*
X125477Y121239D01*
X125489Y121170D01*
X125499Y121100D01*
X125504Y121030D01*
X125506Y120960D01*
X125506Y118816D01*
X125504Y118746D01*
X125499Y118676D01*
X125489Y118606D01*
X125477Y118537D01*
X125460Y118469D01*
X125440Y118402D01*
X125417Y118335D01*
X125390Y118271D01*
X125360Y118207D01*
X125326Y118145D01*
X125290Y118086D01*
X125250Y118028D01*
X125207Y117972D01*
X125162Y117919D01*
X125113Y117868D01*
X125062Y117819D01*
X125009Y117774D01*
X124953Y117731D01*
X124895Y117691D01*
X124835Y117655D01*
X124774Y117621D01*
X124710Y117591D01*
X124646Y117564D01*
X124579Y117541D01*
X124512Y117521D01*
X124444Y117504D01*
X124375Y117492D01*
X124305Y117482D01*
X124235Y117477D01*
X124165Y117475D01*
X122825Y117475D01*
X128494Y121229D02*
X129835Y122301D01*
X129835Y117475D01*
X131175Y117475D02*
X128494Y117475D01*
D13*
X17750Y103900D02*
X17750Y73900D01*
X35500Y113900D02*
X60250Y113900D01*
X60250Y103900D01*
X60250Y73900D02*
X60250Y63900D01*
X35500Y63900D01*
D14*
X34219Y124681D02*
X34219Y134079D01*
X36830Y134079D01*
X36930Y134077D01*
X37030Y134071D01*
X37129Y134062D01*
X37229Y134048D01*
X37327Y134031D01*
X37425Y134010D01*
X37522Y133986D01*
X37618Y133957D01*
X37713Y133925D01*
X37806Y133890D01*
X37898Y133851D01*
X37989Y133808D01*
X38077Y133762D01*
X38164Y133712D01*
X38249Y133660D01*
X38332Y133604D01*
X38413Y133545D01*
X38491Y133482D01*
X38567Y133417D01*
X38641Y133349D01*
X38711Y133279D01*
X38779Y133205D01*
X38844Y133129D01*
X38907Y133051D01*
X38966Y132970D01*
X39022Y132887D01*
X39074Y132802D01*
X39124Y132715D01*
X39170Y132627D01*
X39213Y132536D01*
X39252Y132444D01*
X39287Y132351D01*
X39319Y132256D01*
X39348Y132160D01*
X39372Y132063D01*
X39393Y131965D01*
X39410Y131867D01*
X39424Y131767D01*
X39433Y131668D01*
X39439Y131568D01*
X39441Y131468D01*
X39441Y127292D01*
X39439Y127192D01*
X39433Y127092D01*
X39424Y126993D01*
X39410Y126893D01*
X39393Y126795D01*
X39372Y126697D01*
X39348Y126600D01*
X39319Y126504D01*
X39287Y126409D01*
X39252Y126316D01*
X39213Y126224D01*
X39170Y126133D01*
X39124Y126045D01*
X39074Y125958D01*
X39022Y125873D01*
X38966Y125790D01*
X38907Y125709D01*
X38844Y125631D01*
X38779Y125555D01*
X38711Y125481D01*
X38641Y125411D01*
X38567Y125343D01*
X38491Y125278D01*
X38413Y125215D01*
X38332Y125156D01*
X38249Y125100D01*
X38164Y125048D01*
X38077Y124998D01*
X37989Y124952D01*
X37898Y124909D01*
X37806Y124870D01*
X37713Y124835D01*
X37618Y124803D01*
X37522Y124774D01*
X37425Y124750D01*
X37327Y124729D01*
X37229Y124712D01*
X37129Y124698D01*
X37030Y124689D01*
X36930Y124683D01*
X36830Y124681D01*
X34219Y124681D01*
X44450Y124681D02*
X44450Y134079D01*
X43406Y124681D02*
X45494Y124681D01*
X45494Y134079D02*
X43406Y134079D01*
X49459Y134079D02*
X49459Y124681D01*
X54681Y124681D02*
X49459Y134079D01*
X54681Y134079D02*
X54681Y124681D01*
D13*
X274350Y103900D02*
X274350Y73900D01*
X256600Y63900D02*
X231850Y63900D01*
X231850Y73900D01*
X231850Y103900D02*
X231850Y113900D01*
X256600Y113900D01*
D14*
X240315Y53119D02*
X240315Y43721D01*
X240315Y53119D02*
X242926Y53119D01*
X243026Y53117D01*
X243126Y53111D01*
X243225Y53102D01*
X243325Y53088D01*
X243423Y53071D01*
X243521Y53050D01*
X243618Y53026D01*
X243714Y52997D01*
X243809Y52965D01*
X243902Y52930D01*
X243994Y52891D01*
X244085Y52848D01*
X244173Y52802D01*
X244260Y52752D01*
X244345Y52700D01*
X244428Y52644D01*
X244509Y52585D01*
X244587Y52522D01*
X244663Y52457D01*
X244737Y52389D01*
X244807Y52319D01*
X244875Y52245D01*
X244940Y52169D01*
X245003Y52091D01*
X245062Y52010D01*
X245118Y51927D01*
X245170Y51842D01*
X245220Y51755D01*
X245266Y51667D01*
X245309Y51576D01*
X245348Y51484D01*
X245383Y51391D01*
X245415Y51296D01*
X245444Y51200D01*
X245468Y51103D01*
X245489Y51005D01*
X245506Y50907D01*
X245520Y50807D01*
X245529Y50708D01*
X245535Y50608D01*
X245537Y50508D01*
X245536Y50508D02*
X245536Y46332D01*
X245537Y46332D02*
X245535Y46232D01*
X245529Y46132D01*
X245520Y46033D01*
X245506Y45933D01*
X245489Y45835D01*
X245468Y45737D01*
X245444Y45640D01*
X245415Y45544D01*
X245383Y45449D01*
X245348Y45356D01*
X245309Y45264D01*
X245266Y45173D01*
X245220Y45085D01*
X245170Y44998D01*
X245118Y44913D01*
X245062Y44830D01*
X245003Y44749D01*
X244940Y44671D01*
X244875Y44595D01*
X244807Y44521D01*
X244737Y44451D01*
X244663Y44383D01*
X244587Y44318D01*
X244509Y44255D01*
X244428Y44196D01*
X244345Y44140D01*
X244260Y44088D01*
X244173Y44038D01*
X244085Y43992D01*
X243994Y43949D01*
X243902Y43910D01*
X243809Y43875D01*
X243714Y43843D01*
X243618Y43814D01*
X243521Y43790D01*
X243423Y43769D01*
X243325Y43752D01*
X243225Y43738D01*
X243126Y43729D01*
X243026Y43723D01*
X242926Y43721D01*
X240315Y43721D01*
X249764Y46332D02*
X249764Y50508D01*
X249763Y50508D02*
X249765Y50609D01*
X249771Y50710D01*
X249781Y50811D01*
X249794Y50911D01*
X249812Y51011D01*
X249833Y51110D01*
X249859Y51208D01*
X249888Y51305D01*
X249920Y51401D01*
X249957Y51495D01*
X249997Y51588D01*
X250041Y51680D01*
X250088Y51769D01*
X250139Y51857D01*
X250193Y51943D01*
X250250Y52026D01*
X250310Y52108D01*
X250374Y52186D01*
X250440Y52263D01*
X250510Y52336D01*
X250582Y52407D01*
X250657Y52475D01*
X250735Y52540D01*
X250815Y52602D01*
X250897Y52661D01*
X250982Y52717D01*
X251069Y52769D01*
X251157Y52818D01*
X251248Y52864D01*
X251340Y52905D01*
X251434Y52944D01*
X251529Y52978D01*
X251625Y53009D01*
X251723Y53036D01*
X251821Y53060D01*
X251921Y53079D01*
X252021Y53095D01*
X252121Y53107D01*
X252222Y53115D01*
X252323Y53119D01*
X252425Y53119D01*
X252526Y53115D01*
X252627Y53107D01*
X252727Y53095D01*
X252827Y53079D01*
X252927Y53060D01*
X253025Y53036D01*
X253123Y53009D01*
X253219Y52978D01*
X253314Y52944D01*
X253408Y52905D01*
X253500Y52864D01*
X253591Y52818D01*
X253680Y52769D01*
X253766Y52717D01*
X253851Y52661D01*
X253933Y52602D01*
X254013Y52540D01*
X254091Y52475D01*
X254166Y52407D01*
X254238Y52336D01*
X254308Y52263D01*
X254374Y52186D01*
X254438Y52108D01*
X254498Y52026D01*
X254555Y51943D01*
X254609Y51857D01*
X254660Y51769D01*
X254707Y51680D01*
X254751Y51588D01*
X254791Y51495D01*
X254828Y51401D01*
X254860Y51305D01*
X254889Y51208D01*
X254915Y51110D01*
X254936Y51011D01*
X254954Y50911D01*
X254967Y50811D01*
X254977Y50710D01*
X254983Y50609D01*
X254985Y50508D01*
X254985Y46332D01*
X254983Y46231D01*
X254977Y46130D01*
X254967Y46029D01*
X254954Y45929D01*
X254936Y45829D01*
X254915Y45730D01*
X254889Y45632D01*
X254860Y45535D01*
X254828Y45439D01*
X254791Y45345D01*
X254751Y45252D01*
X254707Y45160D01*
X254660Y45071D01*
X254609Y44983D01*
X254555Y44897D01*
X254498Y44814D01*
X254438Y44732D01*
X254374Y44654D01*
X254308Y44577D01*
X254238Y44504D01*
X254166Y44433D01*
X254091Y44365D01*
X254013Y44300D01*
X253933Y44238D01*
X253851Y44179D01*
X253766Y44123D01*
X253679Y44071D01*
X253591Y44022D01*
X253500Y43976D01*
X253408Y43935D01*
X253314Y43896D01*
X253219Y43862D01*
X253123Y43831D01*
X253025Y43804D01*
X252927Y43780D01*
X252827Y43761D01*
X252727Y43745D01*
X252627Y43733D01*
X252526Y43725D01*
X252425Y43721D01*
X252323Y43721D01*
X252222Y43725D01*
X252121Y43733D01*
X252021Y43745D01*
X251921Y43761D01*
X251821Y43780D01*
X251723Y43804D01*
X251625Y43831D01*
X251529Y43862D01*
X251434Y43896D01*
X251340Y43935D01*
X251248Y43976D01*
X251157Y44022D01*
X251069Y44071D01*
X250982Y44123D01*
X250897Y44179D01*
X250815Y44238D01*
X250735Y44300D01*
X250657Y44365D01*
X250582Y44433D01*
X250510Y44504D01*
X250440Y44577D01*
X250374Y44654D01*
X250310Y44732D01*
X250250Y44814D01*
X250193Y44897D01*
X250139Y44983D01*
X250088Y45071D01*
X250041Y45160D01*
X249997Y45252D01*
X249957Y45345D01*
X249920Y45439D01*
X249888Y45535D01*
X249859Y45632D01*
X249833Y45730D01*
X249812Y45829D01*
X249794Y45929D01*
X249781Y46029D01*
X249771Y46130D01*
X249765Y46231D01*
X249763Y46332D01*
M02*
