G04 EAGLE Gerber RS-274X export*
G75*
%MOMM*%
%FSLAX34Y34*%
%LPD*%
%INTop Copper*%
%IPPOS*%
%AMOC8*
5,1,8,0,0,1.08239X$1,22.5*%
G01*
%ADD10R,1.000000X1.100000*%
%ADD11R,1.651000X1.000000*%
%ADD12C,1.524000*%
%ADD13C,0.609600*%


D10*
X190500Y72000D03*
X190500Y55000D03*
D11*
X140070Y34800D03*
X88530Y34800D03*
X88530Y66800D03*
X140070Y66800D03*
D12*
X25400Y76200D03*
X25400Y50800D03*
X25400Y25400D03*
X215900Y76200D03*
X215900Y50800D03*
X215900Y25400D03*
D13*
X38100Y88900D02*
X25400Y76200D01*
X38100Y88900D02*
X101600Y88900D01*
X114300Y76200D01*
X114300Y50800D01*
X130300Y34800D02*
X140070Y34800D01*
X130300Y34800D02*
X114300Y50800D01*
X140070Y34800D02*
X181470Y76200D01*
X190500Y76200D01*
X215900Y76200D01*
X190500Y76200D02*
X190500Y72000D01*
X50800Y50800D02*
X25400Y50800D01*
X66800Y66800D02*
X88530Y66800D01*
X66800Y66800D02*
X50800Y50800D01*
X25400Y50800D02*
X12700Y50800D01*
X508Y38608D01*
X508Y13208D01*
X12700Y1016D01*
X12700Y508D01*
X51308Y508D01*
X63500Y12700D01*
X152400Y12700D01*
X190500Y50800D01*
X215900Y50800D01*
X190500Y50800D02*
X190500Y55000D01*
X88530Y34800D02*
X72900Y34800D01*
X63500Y25400D01*
X25400Y25400D01*
X140070Y66800D02*
X174870Y101600D01*
X228600Y101600D01*
X241300Y88900D01*
X241300Y38100D02*
X228600Y25400D01*
X215900Y25400D01*
X241300Y38100D02*
X241300Y88900D01*
M02*
