G04 EAGLE Gerber RS-274X export*
G75*
%MOMM*%
%FSLAX34Y34*%
%LPD*%
%INSilkscreen Top*%
%IPPOS*%
%AMOC8*
5,1,8,0,0,1.08239X$1,22.5*%
G01*
%ADD10C,0.127000*%
%ADD11C,0.203200*%
%ADD12C,0.406400*%
%ADD13C,0.152400*%


D10*
X203581Y62004D02*
X203581Y60932D01*
X203579Y60867D01*
X203573Y60803D01*
X203563Y60739D01*
X203550Y60675D01*
X203532Y60613D01*
X203511Y60552D01*
X203487Y60492D01*
X203458Y60434D01*
X203426Y60377D01*
X203391Y60323D01*
X203353Y60271D01*
X203311Y60221D01*
X203267Y60174D01*
X203220Y60130D01*
X203170Y60088D01*
X203118Y60050D01*
X203064Y60015D01*
X203007Y59983D01*
X202949Y59954D01*
X202889Y59930D01*
X202828Y59909D01*
X202766Y59891D01*
X202702Y59878D01*
X202638Y59868D01*
X202574Y59862D01*
X202509Y59860D01*
X202509Y59859D02*
X199827Y59859D01*
X199762Y59861D01*
X199698Y59867D01*
X199634Y59877D01*
X199570Y59890D01*
X199508Y59908D01*
X199447Y59929D01*
X199387Y59954D01*
X199328Y59982D01*
X199272Y60014D01*
X199217Y60049D01*
X199165Y60087D01*
X199115Y60129D01*
X199068Y60173D01*
X199024Y60220D01*
X198982Y60270D01*
X198944Y60322D01*
X198909Y60377D01*
X198877Y60433D01*
X198849Y60492D01*
X198824Y60551D01*
X198803Y60613D01*
X198785Y60675D01*
X198772Y60739D01*
X198762Y60803D01*
X198756Y60867D01*
X198754Y60932D01*
X198755Y60932D02*
X198755Y62004D01*
X199827Y64460D02*
X198755Y65800D01*
X203581Y65800D01*
X203581Y64460D02*
X203581Y67141D01*
D11*
X139192Y27178D02*
X139192Y24638D01*
X138684Y24638D01*
X138684Y24689D01*
X89179Y24689D01*
X89179Y27000D01*
X139395Y73990D02*
X139395Y76708D01*
X138887Y76708D01*
X138887Y76733D01*
X89205Y76733D01*
X89205Y74473D01*
X139700Y59690D02*
X139700Y42672D01*
X88900Y42164D02*
X88900Y50800D01*
X88900Y59436D01*
X88900Y50800D02*
X114300Y76200D01*
D12*
X85725Y79375D03*
D10*
X110125Y79375D02*
X110125Y84201D01*
X111465Y84201D01*
X111535Y84199D01*
X111605Y84194D01*
X111675Y84184D01*
X111744Y84172D01*
X111812Y84155D01*
X111879Y84135D01*
X111946Y84112D01*
X112010Y84085D01*
X112074Y84055D01*
X112136Y84021D01*
X112195Y83985D01*
X112253Y83945D01*
X112309Y83902D01*
X112362Y83857D01*
X112413Y83808D01*
X112462Y83757D01*
X112507Y83704D01*
X112550Y83648D01*
X112590Y83590D01*
X112626Y83531D01*
X112660Y83469D01*
X112690Y83405D01*
X112717Y83341D01*
X112740Y83274D01*
X112760Y83207D01*
X112777Y83139D01*
X112789Y83070D01*
X112799Y83000D01*
X112804Y82930D01*
X112806Y82860D01*
X112806Y80716D01*
X112804Y80646D01*
X112799Y80576D01*
X112789Y80506D01*
X112777Y80437D01*
X112760Y80369D01*
X112740Y80302D01*
X112717Y80235D01*
X112690Y80171D01*
X112660Y80107D01*
X112626Y80045D01*
X112590Y79986D01*
X112550Y79928D01*
X112507Y79872D01*
X112462Y79819D01*
X112413Y79768D01*
X112362Y79719D01*
X112309Y79674D01*
X112253Y79631D01*
X112195Y79591D01*
X112135Y79555D01*
X112074Y79521D01*
X112010Y79491D01*
X111946Y79464D01*
X111879Y79441D01*
X111812Y79421D01*
X111744Y79404D01*
X111675Y79392D01*
X111605Y79382D01*
X111535Y79377D01*
X111465Y79375D01*
X110125Y79375D01*
X115794Y83129D02*
X117135Y84201D01*
X117135Y79375D01*
X118475Y79375D02*
X115794Y79375D01*
D13*
X38100Y82550D02*
X38100Y69850D01*
X31750Y63500D01*
X19050Y63500D01*
X12700Y69850D01*
X31750Y63500D02*
X38100Y57150D01*
X38100Y44450D01*
X31750Y38100D01*
X19050Y38100D01*
X12700Y44450D01*
X12700Y57150D01*
X19050Y63500D01*
X19050Y88900D02*
X31750Y88900D01*
X38100Y82550D01*
X19050Y88900D02*
X12700Y82550D01*
X12700Y69850D01*
X31750Y38100D02*
X38100Y31750D01*
X38100Y19050D01*
X31750Y12700D01*
X19050Y12700D01*
X12700Y19050D01*
X12700Y31750D01*
X19050Y38100D01*
D10*
X44323Y63627D02*
X55753Y63627D01*
X44323Y63627D02*
X44323Y66802D01*
X44325Y66913D01*
X44331Y67023D01*
X44340Y67134D01*
X44354Y67244D01*
X44371Y67353D01*
X44392Y67462D01*
X44417Y67570D01*
X44446Y67677D01*
X44478Y67783D01*
X44514Y67888D01*
X44554Y67991D01*
X44597Y68093D01*
X44644Y68194D01*
X44695Y68293D01*
X44748Y68390D01*
X44805Y68484D01*
X44866Y68577D01*
X44929Y68668D01*
X44996Y68757D01*
X45066Y68843D01*
X45139Y68926D01*
X45214Y69008D01*
X45292Y69086D01*
X45374Y69161D01*
X45457Y69234D01*
X45543Y69304D01*
X45632Y69371D01*
X45723Y69434D01*
X45816Y69495D01*
X45911Y69552D01*
X46007Y69605D01*
X46106Y69656D01*
X46207Y69703D01*
X46309Y69746D01*
X46412Y69786D01*
X46517Y69822D01*
X46623Y69854D01*
X46730Y69883D01*
X46838Y69908D01*
X46947Y69929D01*
X47056Y69946D01*
X47166Y69960D01*
X47277Y69969D01*
X47387Y69975D01*
X47498Y69977D01*
X52578Y69977D01*
X52689Y69975D01*
X52799Y69969D01*
X52910Y69960D01*
X53020Y69946D01*
X53129Y69929D01*
X53238Y69908D01*
X53346Y69883D01*
X53453Y69854D01*
X53559Y69822D01*
X53664Y69786D01*
X53767Y69746D01*
X53869Y69703D01*
X53970Y69656D01*
X54069Y69605D01*
X54166Y69552D01*
X54260Y69495D01*
X54353Y69434D01*
X54444Y69371D01*
X54533Y69304D01*
X54619Y69234D01*
X54702Y69161D01*
X54784Y69086D01*
X54862Y69008D01*
X54937Y68926D01*
X55010Y68843D01*
X55080Y68757D01*
X55147Y68668D01*
X55210Y68577D01*
X55271Y68484D01*
X55328Y68390D01*
X55381Y68293D01*
X55432Y68194D01*
X55479Y68093D01*
X55522Y67991D01*
X55562Y67888D01*
X55598Y67783D01*
X55630Y67677D01*
X55659Y67570D01*
X55684Y67462D01*
X55705Y67353D01*
X55722Y67244D01*
X55736Y67134D01*
X55745Y67023D01*
X55751Y66913D01*
X55753Y66802D01*
X55753Y63627D01*
X55753Y76327D02*
X44323Y76327D01*
X55753Y75057D02*
X55753Y77597D01*
X44323Y77597D02*
X44323Y75057D01*
X44323Y82677D02*
X55753Y82677D01*
X55753Y89027D02*
X44323Y82677D01*
X44323Y89027D02*
X55753Y89027D01*
D13*
X228600Y82550D02*
X228600Y69850D01*
X222250Y63500D01*
X209550Y63500D01*
X203200Y69850D01*
X222250Y63500D02*
X228600Y57150D01*
X228600Y44450D01*
X222250Y38100D01*
X209550Y38100D01*
X203200Y44450D01*
X203200Y57150D01*
X209550Y63500D01*
X209550Y88900D02*
X222250Y88900D01*
X228600Y82550D01*
X209550Y88900D02*
X203200Y82550D01*
X203200Y69850D01*
X222250Y38100D02*
X228600Y31750D01*
X228600Y19050D01*
X222250Y12700D01*
X209550Y12700D01*
X203200Y19050D01*
X203200Y31750D01*
X209550Y38100D01*
D10*
X234823Y70866D02*
X246253Y70866D01*
X234823Y70866D02*
X234823Y74041D01*
X234825Y74152D01*
X234831Y74262D01*
X234840Y74373D01*
X234854Y74483D01*
X234871Y74592D01*
X234892Y74701D01*
X234917Y74809D01*
X234946Y74916D01*
X234978Y75022D01*
X235014Y75127D01*
X235054Y75230D01*
X235097Y75332D01*
X235144Y75433D01*
X235195Y75532D01*
X235248Y75629D01*
X235305Y75723D01*
X235366Y75816D01*
X235429Y75907D01*
X235496Y75996D01*
X235566Y76082D01*
X235639Y76165D01*
X235714Y76247D01*
X235792Y76325D01*
X235874Y76400D01*
X235957Y76473D01*
X236043Y76543D01*
X236132Y76610D01*
X236223Y76673D01*
X236316Y76734D01*
X236411Y76791D01*
X236507Y76844D01*
X236606Y76895D01*
X236707Y76942D01*
X236809Y76985D01*
X236912Y77025D01*
X237017Y77061D01*
X237123Y77093D01*
X237230Y77122D01*
X237338Y77147D01*
X237447Y77168D01*
X237556Y77185D01*
X237666Y77199D01*
X237777Y77208D01*
X237887Y77214D01*
X237998Y77216D01*
X243078Y77216D01*
X243189Y77214D01*
X243299Y77208D01*
X243410Y77199D01*
X243520Y77185D01*
X243629Y77168D01*
X243738Y77147D01*
X243846Y77122D01*
X243953Y77093D01*
X244059Y77061D01*
X244164Y77025D01*
X244267Y76985D01*
X244369Y76942D01*
X244470Y76895D01*
X244569Y76844D01*
X244666Y76791D01*
X244760Y76734D01*
X244853Y76673D01*
X244944Y76610D01*
X245033Y76543D01*
X245119Y76473D01*
X245202Y76400D01*
X245284Y76325D01*
X245362Y76247D01*
X245437Y76165D01*
X245510Y76082D01*
X245580Y75996D01*
X245647Y75907D01*
X245710Y75816D01*
X245771Y75723D01*
X245828Y75629D01*
X245881Y75532D01*
X245932Y75433D01*
X245979Y75332D01*
X246022Y75230D01*
X246062Y75127D01*
X246098Y75022D01*
X246130Y74916D01*
X246159Y74809D01*
X246184Y74701D01*
X246205Y74592D01*
X246222Y74483D01*
X246236Y74373D01*
X246245Y74262D01*
X246251Y74152D01*
X246253Y74041D01*
X246253Y70866D01*
X243078Y82677D02*
X237998Y82677D01*
X237887Y82679D01*
X237777Y82685D01*
X237666Y82694D01*
X237556Y82708D01*
X237447Y82725D01*
X237338Y82746D01*
X237230Y82771D01*
X237123Y82800D01*
X237017Y82832D01*
X236912Y82868D01*
X236809Y82908D01*
X236707Y82951D01*
X236606Y82998D01*
X236507Y83049D01*
X236411Y83102D01*
X236316Y83159D01*
X236223Y83220D01*
X236132Y83283D01*
X236043Y83350D01*
X235957Y83420D01*
X235874Y83493D01*
X235792Y83568D01*
X235714Y83646D01*
X235639Y83728D01*
X235566Y83811D01*
X235496Y83897D01*
X235429Y83986D01*
X235366Y84077D01*
X235305Y84170D01*
X235248Y84264D01*
X235195Y84361D01*
X235144Y84460D01*
X235097Y84561D01*
X235054Y84663D01*
X235014Y84766D01*
X234978Y84871D01*
X234946Y84977D01*
X234917Y85084D01*
X234892Y85192D01*
X234871Y85301D01*
X234854Y85410D01*
X234840Y85520D01*
X234831Y85631D01*
X234825Y85741D01*
X234823Y85852D01*
X234825Y85963D01*
X234831Y86073D01*
X234840Y86184D01*
X234854Y86294D01*
X234871Y86403D01*
X234892Y86512D01*
X234917Y86620D01*
X234946Y86727D01*
X234978Y86833D01*
X235014Y86938D01*
X235054Y87041D01*
X235097Y87143D01*
X235144Y87244D01*
X235195Y87343D01*
X235248Y87440D01*
X235305Y87534D01*
X235366Y87627D01*
X235429Y87718D01*
X235496Y87807D01*
X235566Y87893D01*
X235639Y87976D01*
X235714Y88058D01*
X235792Y88136D01*
X235874Y88211D01*
X235957Y88284D01*
X236043Y88354D01*
X236132Y88421D01*
X236223Y88484D01*
X236316Y88545D01*
X236411Y88602D01*
X236507Y88655D01*
X236606Y88706D01*
X236707Y88753D01*
X236809Y88796D01*
X236912Y88836D01*
X237017Y88872D01*
X237123Y88904D01*
X237230Y88933D01*
X237338Y88958D01*
X237447Y88979D01*
X237556Y88996D01*
X237666Y89010D01*
X237777Y89019D01*
X237887Y89025D01*
X237998Y89027D01*
X243078Y89027D01*
X243189Y89025D01*
X243299Y89019D01*
X243410Y89010D01*
X243520Y88996D01*
X243629Y88979D01*
X243738Y88958D01*
X243846Y88933D01*
X243953Y88904D01*
X244059Y88872D01*
X244164Y88836D01*
X244267Y88796D01*
X244369Y88753D01*
X244470Y88706D01*
X244569Y88655D01*
X244666Y88602D01*
X244760Y88545D01*
X244853Y88484D01*
X244944Y88421D01*
X245033Y88354D01*
X245119Y88284D01*
X245202Y88211D01*
X245284Y88136D01*
X245362Y88058D01*
X245437Y87976D01*
X245510Y87893D01*
X245580Y87807D01*
X245647Y87718D01*
X245710Y87627D01*
X245771Y87534D01*
X245828Y87439D01*
X245881Y87343D01*
X245932Y87244D01*
X245979Y87143D01*
X246022Y87041D01*
X246062Y86938D01*
X246098Y86833D01*
X246130Y86727D01*
X246159Y86620D01*
X246184Y86512D01*
X246205Y86403D01*
X246222Y86294D01*
X246236Y86184D01*
X246245Y86073D01*
X246251Y85963D01*
X246253Y85852D01*
X246251Y85741D01*
X246245Y85631D01*
X246236Y85520D01*
X246222Y85410D01*
X246205Y85301D01*
X246184Y85192D01*
X246159Y85084D01*
X246130Y84977D01*
X246098Y84871D01*
X246062Y84766D01*
X246022Y84663D01*
X245979Y84561D01*
X245932Y84460D01*
X245881Y84361D01*
X245828Y84264D01*
X245771Y84170D01*
X245710Y84077D01*
X245647Y83986D01*
X245580Y83897D01*
X245510Y83811D01*
X245437Y83728D01*
X245362Y83646D01*
X245284Y83568D01*
X245202Y83493D01*
X245119Y83420D01*
X245033Y83350D01*
X244944Y83283D01*
X244853Y83220D01*
X244760Y83159D01*
X244665Y83102D01*
X244569Y83049D01*
X244470Y82998D01*
X244369Y82951D01*
X244267Y82908D01*
X244164Y82868D01*
X244059Y82832D01*
X243953Y82800D01*
X243846Y82771D01*
X243738Y82746D01*
X243629Y82725D01*
X243520Y82708D01*
X243410Y82694D01*
X243299Y82685D01*
X243189Y82679D01*
X243078Y82677D01*
M02*
