G04 EAGLE Gerber RS-274X export*
G75*
%MOMM*%
%FSLAX34Y34*%
%LPD*%
%INTop Copper*%
%IPPOS*%
%AMOC8*
5,1,8,0,0,1.08239X$1,22.5*%
G01*
%ADD10R,1.651000X1.000000*%
%ADD11R,1.100000X1.400000*%
%ADD12R,0.600000X1.550000*%
%ADD13R,1.200000X1.800000*%
%ADD14C,0.508000*%

G36*
X292120Y10164D02*
X292120Y10164D01*
X292139Y10162D01*
X292241Y10184D01*
X292343Y10200D01*
X292360Y10210D01*
X292380Y10214D01*
X292469Y10267D01*
X292560Y10316D01*
X292574Y10330D01*
X292591Y10340D01*
X292658Y10419D01*
X292730Y10494D01*
X292738Y10512D01*
X292751Y10527D01*
X292790Y10623D01*
X292833Y10717D01*
X292835Y10737D01*
X292843Y10755D01*
X292861Y10922D01*
X292861Y332100D01*
X292858Y332120D01*
X292860Y332139D01*
X292838Y332241D01*
X292822Y332343D01*
X292812Y332360D01*
X292808Y332380D01*
X292755Y332469D01*
X292706Y332560D01*
X292692Y332574D01*
X292682Y332591D01*
X292603Y332658D01*
X292528Y332730D01*
X292510Y332738D01*
X292495Y332751D01*
X292399Y332790D01*
X292305Y332833D01*
X292285Y332835D01*
X292267Y332843D01*
X292100Y332861D01*
X111116Y332861D01*
X111045Y332850D01*
X110973Y332848D01*
X110924Y332830D01*
X110873Y332822D01*
X110810Y332788D01*
X110742Y332763D01*
X110702Y332731D01*
X110656Y332706D01*
X110606Y332655D01*
X110550Y332610D01*
X110522Y332566D01*
X110486Y332528D01*
X110456Y332463D01*
X110417Y332403D01*
X110405Y332352D01*
X110383Y332305D01*
X110375Y332234D01*
X110357Y332164D01*
X110361Y332112D01*
X110356Y332061D01*
X110371Y331990D01*
X110376Y331919D01*
X110397Y331871D01*
X110408Y331820D01*
X110445Y331759D01*
X110473Y331693D01*
X110517Y331637D01*
X110534Y331609D01*
X110552Y331594D01*
X110577Y331562D01*
X112811Y329328D01*
X112811Y308172D01*
X110578Y305939D01*
X95422Y305939D01*
X93189Y308172D01*
X93189Y329328D01*
X95423Y331562D01*
X95464Y331620D01*
X95514Y331672D01*
X95536Y331719D01*
X95566Y331761D01*
X95587Y331830D01*
X95617Y331895D01*
X95623Y331947D01*
X95638Y331997D01*
X95637Y332068D01*
X95644Y332139D01*
X95633Y332190D01*
X95632Y332242D01*
X95607Y332310D01*
X95592Y332380D01*
X95566Y332424D01*
X95548Y332473D01*
X95503Y332529D01*
X95466Y332591D01*
X95426Y332625D01*
X95394Y332665D01*
X95334Y332704D01*
X95279Y332751D01*
X95231Y332770D01*
X95187Y332798D01*
X95118Y332816D01*
X95051Y332843D01*
X94980Y332851D01*
X94948Y332859D01*
X94925Y332857D01*
X94884Y332861D01*
X65116Y332861D01*
X65045Y332850D01*
X64973Y332848D01*
X64924Y332830D01*
X64873Y332822D01*
X64810Y332788D01*
X64742Y332763D01*
X64702Y332731D01*
X64656Y332706D01*
X64606Y332655D01*
X64550Y332610D01*
X64522Y332566D01*
X64486Y332528D01*
X64456Y332463D01*
X64417Y332403D01*
X64405Y332352D01*
X64383Y332305D01*
X64375Y332234D01*
X64357Y332164D01*
X64361Y332112D01*
X64356Y332061D01*
X64371Y331990D01*
X64376Y331919D01*
X64397Y331871D01*
X64408Y331820D01*
X64445Y331759D01*
X64473Y331693D01*
X64517Y331637D01*
X64534Y331609D01*
X64552Y331594D01*
X64577Y331562D01*
X66811Y329328D01*
X66811Y308172D01*
X64578Y305939D01*
X49422Y305939D01*
X47189Y308172D01*
X47189Y329328D01*
X49423Y331562D01*
X49464Y331620D01*
X49514Y331672D01*
X49536Y331719D01*
X49566Y331761D01*
X49587Y331830D01*
X49617Y331895D01*
X49623Y331947D01*
X49638Y331997D01*
X49637Y332068D01*
X49644Y332139D01*
X49633Y332190D01*
X49632Y332242D01*
X49607Y332310D01*
X49592Y332380D01*
X49566Y332424D01*
X49548Y332473D01*
X49503Y332529D01*
X49466Y332591D01*
X49426Y332625D01*
X49394Y332665D01*
X49334Y332704D01*
X49279Y332751D01*
X49231Y332770D01*
X49187Y332798D01*
X49118Y332816D01*
X49051Y332843D01*
X48980Y332851D01*
X48948Y332859D01*
X48925Y332857D01*
X48884Y332861D01*
X10922Y332861D01*
X10902Y332858D01*
X10883Y332860D01*
X10781Y332838D01*
X10679Y332822D01*
X10662Y332812D01*
X10642Y332808D01*
X10553Y332755D01*
X10462Y332706D01*
X10448Y332692D01*
X10431Y332682D01*
X10364Y332603D01*
X10292Y332528D01*
X10284Y332510D01*
X10271Y332495D01*
X10232Y332399D01*
X10189Y332305D01*
X10187Y332285D01*
X10179Y332267D01*
X10161Y332100D01*
X10161Y10922D01*
X10164Y10902D01*
X10162Y10883D01*
X10184Y10781D01*
X10200Y10679D01*
X10210Y10662D01*
X10214Y10642D01*
X10267Y10553D01*
X10316Y10462D01*
X10330Y10448D01*
X10340Y10431D01*
X10419Y10364D01*
X10494Y10292D01*
X10512Y10284D01*
X10527Y10271D01*
X10623Y10232D01*
X10717Y10189D01*
X10737Y10187D01*
X10755Y10179D01*
X10922Y10161D01*
X292100Y10161D01*
X292120Y10164D01*
G37*
%LPC*%
G36*
X168337Y51389D02*
X168337Y51389D01*
X166104Y53622D01*
X166104Y66778D01*
X168337Y69011D01*
X177684Y69011D01*
X177774Y69025D01*
X177865Y69033D01*
X177895Y69045D01*
X177927Y69050D01*
X178008Y69093D01*
X178091Y69129D01*
X178124Y69155D01*
X178144Y69166D01*
X178166Y69189D01*
X178222Y69234D01*
X192149Y83160D01*
X192161Y83176D01*
X192176Y83189D01*
X192232Y83276D01*
X192293Y83360D01*
X192298Y83379D01*
X192309Y83396D01*
X192334Y83496D01*
X192365Y83595D01*
X192364Y83615D01*
X192369Y83634D01*
X192361Y83737D01*
X192359Y83841D01*
X192352Y83860D01*
X192350Y83880D01*
X192310Y83974D01*
X192274Y84072D01*
X192262Y84088D01*
X192254Y84106D01*
X192149Y84237D01*
X191038Y85348D01*
X191022Y85359D01*
X191010Y85375D01*
X190923Y85431D01*
X190839Y85491D01*
X190819Y85497D01*
X190803Y85508D01*
X190702Y85533D01*
X190603Y85563D01*
X190584Y85563D01*
X190564Y85568D01*
X190461Y85560D01*
X190358Y85557D01*
X190339Y85550D01*
X190319Y85549D01*
X190224Y85508D01*
X190127Y85473D01*
X190111Y85460D01*
X190093Y85452D01*
X189962Y85348D01*
X188003Y83389D01*
X168337Y83389D01*
X166099Y85626D01*
X166026Y85679D01*
X165956Y85739D01*
X165926Y85751D01*
X165900Y85770D01*
X165813Y85797D01*
X165728Y85831D01*
X165687Y85835D01*
X165665Y85842D01*
X165632Y85841D01*
X165561Y85849D01*
X160537Y85849D01*
X158203Y86816D01*
X148910Y96109D01*
X147016Y98003D01*
X146049Y100337D01*
X146049Y124054D01*
X146035Y124144D01*
X146027Y124235D01*
X146015Y124265D01*
X146010Y124297D01*
X145967Y124378D01*
X145931Y124461D01*
X145905Y124494D01*
X145894Y124514D01*
X145871Y124536D01*
X145826Y124592D01*
X140592Y129826D01*
X140518Y129879D01*
X140449Y129939D01*
X140419Y129951D01*
X140393Y129970D01*
X140306Y129997D01*
X140221Y130031D01*
X140180Y130035D01*
X140158Y130042D01*
X140125Y130041D01*
X140054Y130049D01*
X139239Y130049D01*
X139149Y130035D01*
X139058Y130027D01*
X139028Y130015D01*
X138996Y130010D01*
X138915Y129967D01*
X138831Y129931D01*
X138799Y129905D01*
X138779Y129894D01*
X138756Y129871D01*
X138701Y129826D01*
X136463Y127589D01*
X116797Y127589D01*
X114564Y129822D01*
X114564Y142978D01*
X116797Y145211D01*
X136463Y145211D01*
X138701Y142974D01*
X138774Y142921D01*
X138844Y142861D01*
X138874Y142849D01*
X138900Y142830D01*
X138987Y142803D01*
X139072Y142769D01*
X139113Y142765D01*
X139135Y142758D01*
X139168Y142759D01*
X139239Y142751D01*
X144263Y142751D01*
X146597Y141784D01*
X157784Y130597D01*
X158751Y128263D01*
X158751Y104546D01*
X158753Y104530D01*
X158752Y104516D01*
X158766Y104452D01*
X158773Y104365D01*
X158785Y104335D01*
X158790Y104303D01*
X158803Y104279D01*
X158804Y104276D01*
X158812Y104263D01*
X158833Y104222D01*
X158869Y104139D01*
X158895Y104106D01*
X158906Y104086D01*
X158929Y104064D01*
X158974Y104008D01*
X164208Y98774D01*
X164282Y98721D01*
X164351Y98661D01*
X164381Y98649D01*
X164407Y98630D01*
X164494Y98603D01*
X164579Y98569D01*
X164620Y98565D01*
X164642Y98558D01*
X164675Y98559D01*
X164746Y98551D01*
X165561Y98551D01*
X165651Y98565D01*
X165742Y98573D01*
X165772Y98585D01*
X165804Y98590D01*
X165885Y98633D01*
X165969Y98669D01*
X166001Y98695D01*
X166021Y98706D01*
X166044Y98729D01*
X166099Y98774D01*
X168337Y101011D01*
X188003Y101011D01*
X189962Y99052D01*
X189978Y99041D01*
X189990Y99025D01*
X190078Y98969D01*
X190161Y98909D01*
X190180Y98903D01*
X190197Y98892D01*
X190298Y98867D01*
X190397Y98837D01*
X190416Y98837D01*
X190436Y98832D01*
X190539Y98840D01*
X190642Y98843D01*
X190661Y98850D01*
X190681Y98851D01*
X190776Y98892D01*
X190873Y98927D01*
X190889Y98940D01*
X190907Y98948D01*
X191038Y99052D01*
X193002Y101016D01*
X193041Y101022D01*
X193113Y101024D01*
X193162Y101042D01*
X193213Y101050D01*
X193276Y101084D01*
X193344Y101109D01*
X193384Y101141D01*
X193430Y101166D01*
X193480Y101218D01*
X193536Y101262D01*
X193564Y101306D01*
X193600Y101344D01*
X193630Y101409D01*
X193669Y101469D01*
X193681Y101520D01*
X193703Y101567D01*
X193711Y101638D01*
X193729Y101708D01*
X193725Y101760D01*
X193730Y101811D01*
X193715Y101882D01*
X193710Y101953D01*
X193689Y102001D01*
X193678Y102052D01*
X193641Y102113D01*
X193613Y102179D01*
X193569Y102235D01*
X193552Y102263D01*
X193534Y102278D01*
X193508Y102310D01*
X172786Y123033D01*
X171819Y125367D01*
X171819Y126828D01*
X171816Y126848D01*
X171818Y126867D01*
X171796Y126969D01*
X171780Y127071D01*
X171770Y127088D01*
X171766Y127108D01*
X171713Y127197D01*
X171664Y127288D01*
X171650Y127302D01*
X171640Y127319D01*
X171561Y127386D01*
X171486Y127458D01*
X171468Y127466D01*
X171453Y127479D01*
X171357Y127518D01*
X171263Y127561D01*
X171243Y127563D01*
X171225Y127571D01*
X171058Y127589D01*
X168337Y127589D01*
X166104Y129822D01*
X166104Y142978D01*
X168337Y145211D01*
X177684Y145211D01*
X177774Y145225D01*
X177865Y145233D01*
X177895Y145245D01*
X177927Y145250D01*
X178008Y145293D01*
X178091Y145329D01*
X178124Y145355D01*
X178144Y145366D01*
X178166Y145389D01*
X178222Y145434D01*
X192149Y159360D01*
X192161Y159376D01*
X192176Y159389D01*
X192232Y159476D01*
X192293Y159560D01*
X192298Y159579D01*
X192309Y159596D01*
X192334Y159696D01*
X192365Y159795D01*
X192364Y159815D01*
X192369Y159834D01*
X192361Y159937D01*
X192359Y160041D01*
X192352Y160060D01*
X192350Y160080D01*
X192310Y160174D01*
X192274Y160272D01*
X192262Y160288D01*
X192254Y160306D01*
X192149Y160437D01*
X191038Y161548D01*
X191022Y161559D01*
X191010Y161575D01*
X190923Y161631D01*
X190839Y161691D01*
X190819Y161697D01*
X190803Y161708D01*
X190702Y161733D01*
X190603Y161763D01*
X190584Y161763D01*
X190564Y161768D01*
X190461Y161760D01*
X190358Y161757D01*
X190339Y161750D01*
X190319Y161749D01*
X190224Y161708D01*
X190127Y161673D01*
X190111Y161660D01*
X190093Y161652D01*
X189962Y161548D01*
X188003Y159589D01*
X168337Y159589D01*
X166099Y161826D01*
X166026Y161879D01*
X165956Y161939D01*
X165926Y161951D01*
X165900Y161970D01*
X165813Y161997D01*
X165728Y162031D01*
X165687Y162035D01*
X165665Y162042D01*
X165632Y162041D01*
X165561Y162049D01*
X160537Y162049D01*
X158203Y163016D01*
X148910Y172309D01*
X147016Y174203D01*
X146049Y176537D01*
X146049Y200254D01*
X146035Y200344D01*
X146027Y200435D01*
X146015Y200465D01*
X146010Y200497D01*
X145967Y200578D01*
X145931Y200661D01*
X145905Y200694D01*
X145894Y200714D01*
X145871Y200736D01*
X145826Y200792D01*
X140592Y206026D01*
X140518Y206079D01*
X140449Y206139D01*
X140419Y206151D01*
X140393Y206170D01*
X140306Y206197D01*
X140221Y206231D01*
X140180Y206235D01*
X140158Y206242D01*
X140125Y206241D01*
X140054Y206249D01*
X139239Y206249D01*
X139149Y206235D01*
X139058Y206227D01*
X139028Y206215D01*
X138996Y206210D01*
X138915Y206167D01*
X138831Y206131D01*
X138799Y206105D01*
X138779Y206094D01*
X138756Y206071D01*
X138701Y206026D01*
X136463Y203789D01*
X116797Y203789D01*
X114564Y206022D01*
X114564Y219178D01*
X116336Y220950D01*
X116377Y221008D01*
X116427Y221060D01*
X116449Y221107D01*
X116479Y221149D01*
X116500Y221218D01*
X116530Y221283D01*
X116536Y221335D01*
X116551Y221385D01*
X116550Y221456D01*
X116557Y221527D01*
X116546Y221578D01*
X116545Y221630D01*
X116520Y221698D01*
X116505Y221768D01*
X116479Y221813D01*
X116461Y221861D01*
X116416Y221917D01*
X116379Y221979D01*
X116339Y222013D01*
X116307Y222053D01*
X116247Y222092D01*
X116192Y222139D01*
X116144Y222158D01*
X116100Y222186D01*
X116031Y222204D01*
X115964Y222231D01*
X115893Y222239D01*
X115861Y222247D01*
X115838Y222245D01*
X115797Y222249D01*
X74937Y222249D01*
X72603Y223216D01*
X60252Y235566D01*
X60178Y235619D01*
X60109Y235679D01*
X60079Y235691D01*
X60053Y235710D01*
X59966Y235737D01*
X59881Y235771D01*
X59840Y235775D01*
X59818Y235782D01*
X59785Y235781D01*
X59714Y235789D01*
X41886Y235789D01*
X41796Y235775D01*
X41705Y235767D01*
X41675Y235755D01*
X41643Y235750D01*
X41562Y235707D01*
X41479Y235671D01*
X41446Y235645D01*
X41426Y235634D01*
X41404Y235611D01*
X41348Y235566D01*
X31974Y226192D01*
X31921Y226118D01*
X31861Y226049D01*
X31849Y226019D01*
X31830Y225993D01*
X31803Y225906D01*
X31769Y225821D01*
X31765Y225780D01*
X31758Y225758D01*
X31759Y225725D01*
X31751Y225654D01*
X31751Y180746D01*
X31765Y180656D01*
X31773Y180565D01*
X31785Y180535D01*
X31790Y180503D01*
X31833Y180422D01*
X31869Y180339D01*
X31895Y180306D01*
X31906Y180286D01*
X31929Y180264D01*
X31974Y180208D01*
X37208Y174974D01*
X37282Y174921D01*
X37351Y174861D01*
X37381Y174849D01*
X37407Y174830D01*
X37494Y174803D01*
X37579Y174769D01*
X37620Y174765D01*
X37642Y174758D01*
X37675Y174759D01*
X37746Y174751D01*
X37821Y174751D01*
X37911Y174765D01*
X38002Y174773D01*
X38032Y174785D01*
X38064Y174790D01*
X38145Y174833D01*
X38229Y174869D01*
X38261Y174895D01*
X38281Y174906D01*
X38304Y174929D01*
X38359Y174974D01*
X40597Y177211D01*
X60263Y177211D01*
X62496Y174978D01*
X62496Y161822D01*
X60263Y159589D01*
X40597Y159589D01*
X38359Y161826D01*
X38286Y161879D01*
X38216Y161939D01*
X38186Y161951D01*
X38160Y161970D01*
X38073Y161997D01*
X37988Y162031D01*
X37947Y162035D01*
X37925Y162042D01*
X37892Y162041D01*
X37821Y162049D01*
X37746Y162049D01*
X37656Y162035D01*
X37565Y162027D01*
X37535Y162015D01*
X37503Y162010D01*
X37422Y161967D01*
X37339Y161931D01*
X37306Y161905D01*
X37286Y161894D01*
X37264Y161871D01*
X37208Y161826D01*
X31974Y156592D01*
X31921Y156518D01*
X31861Y156449D01*
X31849Y156419D01*
X31830Y156393D01*
X31803Y156306D01*
X31769Y156221D01*
X31765Y156180D01*
X31758Y156158D01*
X31759Y156125D01*
X31751Y156054D01*
X31751Y104546D01*
X31753Y104530D01*
X31752Y104516D01*
X31766Y104452D01*
X31773Y104365D01*
X31785Y104335D01*
X31790Y104303D01*
X31803Y104279D01*
X31804Y104276D01*
X31812Y104263D01*
X31833Y104222D01*
X31869Y104139D01*
X31895Y104106D01*
X31906Y104086D01*
X31929Y104064D01*
X31974Y104008D01*
X37208Y98774D01*
X37282Y98721D01*
X37351Y98661D01*
X37381Y98649D01*
X37407Y98630D01*
X37494Y98603D01*
X37579Y98569D01*
X37620Y98565D01*
X37642Y98558D01*
X37675Y98559D01*
X37746Y98551D01*
X37821Y98551D01*
X37911Y98565D01*
X38002Y98573D01*
X38032Y98585D01*
X38064Y98590D01*
X38145Y98633D01*
X38229Y98669D01*
X38261Y98695D01*
X38281Y98706D01*
X38304Y98729D01*
X38359Y98774D01*
X40597Y101011D01*
X60263Y101011D01*
X62496Y98778D01*
X62496Y85622D01*
X60263Y83389D01*
X40597Y83389D01*
X38359Y85626D01*
X38286Y85679D01*
X38216Y85739D01*
X38186Y85751D01*
X38160Y85770D01*
X38073Y85797D01*
X37988Y85831D01*
X37947Y85835D01*
X37925Y85842D01*
X37892Y85841D01*
X37821Y85849D01*
X33537Y85849D01*
X31203Y86816D01*
X20016Y98003D01*
X19049Y100337D01*
X19049Y160263D01*
X20016Y162597D01*
X25280Y167862D01*
X25292Y167878D01*
X25308Y167890D01*
X25364Y167978D01*
X25424Y168061D01*
X25430Y168080D01*
X25441Y168097D01*
X25466Y168198D01*
X25496Y168297D01*
X25496Y168316D01*
X25501Y168336D01*
X25493Y168439D01*
X25490Y168542D01*
X25483Y168561D01*
X25482Y168581D01*
X25441Y168676D01*
X25406Y168773D01*
X25393Y168789D01*
X25385Y168807D01*
X25280Y168938D01*
X21910Y172309D01*
X20016Y174203D01*
X19049Y176537D01*
X19049Y229863D01*
X20016Y232197D01*
X21910Y234091D01*
X35909Y248090D01*
X37803Y249984D01*
X37894Y250022D01*
X37994Y250084D01*
X38010Y250093D01*
X38040Y250109D01*
X38045Y250114D01*
X38094Y250143D01*
X38098Y250148D01*
X38103Y250151D01*
X38178Y250242D01*
X38254Y250330D01*
X38256Y250336D01*
X38260Y250341D01*
X38302Y250449D01*
X38346Y250558D01*
X38347Y250566D01*
X38348Y250571D01*
X38349Y250589D01*
X38364Y250725D01*
X38364Y251178D01*
X40597Y253411D01*
X49944Y253411D01*
X50034Y253425D01*
X50125Y253433D01*
X50155Y253445D01*
X50187Y253450D01*
X50268Y253493D01*
X50351Y253529D01*
X50384Y253555D01*
X50404Y253566D01*
X50426Y253589D01*
X50482Y253634D01*
X59903Y263054D01*
X62237Y264021D01*
X72888Y264021D01*
X72908Y264024D01*
X72927Y264022D01*
X73029Y264044D01*
X73131Y264060D01*
X73148Y264070D01*
X73168Y264074D01*
X73257Y264127D01*
X73348Y264176D01*
X73362Y264190D01*
X73379Y264200D01*
X73446Y264279D01*
X73518Y264354D01*
X73526Y264372D01*
X73539Y264387D01*
X73578Y264483D01*
X73621Y264577D01*
X73623Y264597D01*
X73631Y264615D01*
X73649Y264782D01*
X73649Y268948D01*
X73646Y268968D01*
X73648Y268987D01*
X73626Y269089D01*
X73610Y269191D01*
X73600Y269208D01*
X73596Y269228D01*
X73543Y269317D01*
X73494Y269408D01*
X73480Y269422D01*
X73470Y269439D01*
X73391Y269506D01*
X73316Y269578D01*
X73298Y269586D01*
X73283Y269599D01*
X73187Y269638D01*
X73093Y269681D01*
X73073Y269683D01*
X73055Y269691D01*
X72888Y269709D01*
X71499Y269709D01*
X71499Y279262D01*
X71496Y279281D01*
X71498Y279301D01*
X71476Y279403D01*
X71460Y279505D01*
X71450Y279522D01*
X71446Y279542D01*
X71393Y279631D01*
X71344Y279722D01*
X71330Y279736D01*
X71320Y279753D01*
X71241Y279820D01*
X71166Y279891D01*
X71148Y279900D01*
X71133Y279913D01*
X71037Y279951D01*
X70943Y279995D01*
X70923Y279997D01*
X70905Y280004D01*
X70981Y280017D01*
X70998Y280026D01*
X71018Y280030D01*
X71107Y280083D01*
X71198Y280132D01*
X71212Y280146D01*
X71229Y280156D01*
X71296Y280235D01*
X71368Y280310D01*
X71376Y280328D01*
X71389Y280343D01*
X71428Y280440D01*
X71471Y280533D01*
X71473Y280553D01*
X71481Y280571D01*
X71499Y280738D01*
X71499Y290291D01*
X73335Y290291D01*
X73554Y290232D01*
X73622Y290225D01*
X73687Y290209D01*
X73743Y290213D01*
X73799Y290207D01*
X73865Y290222D01*
X73932Y290228D01*
X73984Y290250D01*
X74039Y290262D01*
X74096Y290298D01*
X74159Y290324D01*
X74220Y290373D01*
X74249Y290391D01*
X74262Y290407D01*
X74290Y290429D01*
X75422Y291561D01*
X84624Y291561D01*
X84661Y291534D01*
X84681Y291528D01*
X84697Y291517D01*
X84798Y291492D01*
X84897Y291462D01*
X84917Y291462D01*
X84936Y291457D01*
X85039Y291465D01*
X85142Y291468D01*
X85161Y291475D01*
X85181Y291476D01*
X85276Y291517D01*
X85373Y291552D01*
X85384Y291561D01*
X94578Y291561D01*
X96811Y289328D01*
X96811Y270672D01*
X96574Y270435D01*
X96520Y270360D01*
X96461Y270291D01*
X96449Y270261D01*
X96430Y270235D01*
X96403Y270148D01*
X96369Y270063D01*
X96365Y270022D01*
X96358Y270000D01*
X96359Y269968D01*
X96351Y269896D01*
X96351Y255846D01*
X96365Y255756D01*
X96373Y255665D01*
X96385Y255635D01*
X96390Y255603D01*
X96433Y255522D01*
X96469Y255439D01*
X96495Y255406D01*
X96506Y255386D01*
X96529Y255364D01*
X96574Y255308D01*
X98248Y253634D01*
X98322Y253581D01*
X98391Y253521D01*
X98421Y253509D01*
X98447Y253490D01*
X98534Y253463D01*
X98619Y253429D01*
X98660Y253425D01*
X98682Y253418D01*
X98715Y253419D01*
X98786Y253411D01*
X111803Y253411D01*
X114036Y251178D01*
X114036Y238022D01*
X112264Y236250D01*
X112223Y236192D01*
X112173Y236140D01*
X112151Y236093D01*
X112121Y236051D01*
X112100Y235982D01*
X112070Y235917D01*
X112064Y235865D01*
X112049Y235815D01*
X112050Y235744D01*
X112043Y235673D01*
X112054Y235622D01*
X112055Y235570D01*
X112080Y235502D01*
X112095Y235432D01*
X112121Y235387D01*
X112139Y235339D01*
X112184Y235283D01*
X112221Y235221D01*
X112261Y235187D01*
X112293Y235147D01*
X112353Y235108D01*
X112408Y235061D01*
X112456Y235042D01*
X112500Y235014D01*
X112569Y234996D01*
X112636Y234969D01*
X112707Y234961D01*
X112739Y234953D01*
X112762Y234955D01*
X112803Y234951D01*
X145288Y234951D01*
X145308Y234954D01*
X145327Y234952D01*
X145429Y234974D01*
X145531Y234990D01*
X145548Y235000D01*
X145568Y235004D01*
X145657Y235057D01*
X145748Y235106D01*
X145762Y235120D01*
X145779Y235130D01*
X145846Y235209D01*
X145918Y235284D01*
X145926Y235302D01*
X145939Y235317D01*
X145978Y235413D01*
X146021Y235507D01*
X146023Y235527D01*
X146031Y235545D01*
X146049Y235712D01*
X146049Y255263D01*
X147016Y257597D01*
X148910Y259491D01*
X152951Y263533D01*
X152963Y263549D01*
X152979Y263561D01*
X153035Y263649D01*
X153095Y263732D01*
X153101Y263752D01*
X153112Y263768D01*
X153137Y263869D01*
X153167Y263968D01*
X153167Y263988D01*
X153172Y264007D01*
X153164Y264110D01*
X153161Y264213D01*
X153154Y264232D01*
X153153Y264252D01*
X153112Y264347D01*
X153089Y264410D01*
X153089Y281628D01*
X155322Y283861D01*
X169478Y283861D01*
X171711Y281628D01*
X171711Y264472D01*
X169478Y262239D01*
X169053Y262239D01*
X168939Y262220D01*
X168822Y262203D01*
X168817Y262201D01*
X168811Y262200D01*
X168708Y262145D01*
X168603Y262092D01*
X168599Y262087D01*
X168593Y262084D01*
X168513Y262000D01*
X168431Y261916D01*
X168427Y261910D01*
X168424Y261906D01*
X168416Y261889D01*
X168350Y261769D01*
X167784Y260403D01*
X158974Y251592D01*
X158921Y251518D01*
X158861Y251449D01*
X158849Y251419D01*
X158830Y251393D01*
X158803Y251306D01*
X158769Y251221D01*
X158765Y251180D01*
X158758Y251158D01*
X158759Y251125D01*
X158751Y251054D01*
X158751Y235712D01*
X158754Y235692D01*
X158752Y235673D01*
X158774Y235571D01*
X158790Y235469D01*
X158800Y235452D01*
X158804Y235432D01*
X158857Y235343D01*
X158906Y235252D01*
X158920Y235238D01*
X158930Y235221D01*
X159009Y235154D01*
X159084Y235082D01*
X159102Y235074D01*
X159117Y235061D01*
X159213Y235022D01*
X159307Y234979D01*
X159327Y234977D01*
X159345Y234969D01*
X159512Y234951D01*
X167337Y234951D01*
X167408Y234962D01*
X167480Y234964D01*
X167529Y234982D01*
X167580Y234990D01*
X167643Y235024D01*
X167711Y235049D01*
X167751Y235081D01*
X167797Y235106D01*
X167847Y235158D01*
X167903Y235202D01*
X167931Y235246D01*
X167967Y235284D01*
X167997Y235349D01*
X168036Y235409D01*
X168048Y235460D01*
X168070Y235507D01*
X168078Y235578D01*
X168096Y235648D01*
X168092Y235700D01*
X168097Y235751D01*
X168082Y235822D01*
X168077Y235893D01*
X168056Y235941D01*
X168045Y235992D01*
X168008Y236053D01*
X167980Y236119D01*
X167936Y236175D01*
X167919Y236203D01*
X167901Y236218D01*
X167876Y236250D01*
X166104Y238022D01*
X166104Y251178D01*
X168337Y253411D01*
X171058Y253411D01*
X171078Y253414D01*
X171097Y253412D01*
X171199Y253434D01*
X171301Y253450D01*
X171318Y253460D01*
X171338Y253464D01*
X171427Y253517D01*
X171518Y253566D01*
X171532Y253580D01*
X171549Y253590D01*
X171616Y253669D01*
X171688Y253744D01*
X171696Y253762D01*
X171709Y253777D01*
X171748Y253873D01*
X171791Y253967D01*
X171793Y253987D01*
X171801Y254005D01*
X171819Y254172D01*
X171819Y255633D01*
X172786Y257967D01*
X186903Y272084D01*
X189237Y273051D01*
X242563Y273051D01*
X244897Y272084D01*
X259384Y257597D01*
X260351Y255263D01*
X260351Y254172D01*
X260354Y254152D01*
X260352Y254133D01*
X260374Y254031D01*
X260390Y253929D01*
X260400Y253912D01*
X260404Y253892D01*
X260457Y253803D01*
X260506Y253712D01*
X260520Y253698D01*
X260530Y253681D01*
X260609Y253614D01*
X260684Y253542D01*
X260702Y253534D01*
X260717Y253521D01*
X260813Y253482D01*
X260907Y253439D01*
X260927Y253437D01*
X260945Y253429D01*
X261112Y253411D01*
X264203Y253411D01*
X266436Y251178D01*
X266436Y238022D01*
X264203Y235789D01*
X244537Y235789D01*
X242304Y238022D01*
X242304Y251178D01*
X244534Y253408D01*
X244546Y253424D01*
X244561Y253437D01*
X244617Y253524D01*
X244678Y253608D01*
X244683Y253627D01*
X244694Y253644D01*
X244719Y253744D01*
X244750Y253843D01*
X244749Y253863D01*
X244754Y253882D01*
X244746Y253985D01*
X244744Y254089D01*
X244737Y254108D01*
X244735Y254127D01*
X244695Y254222D01*
X244659Y254320D01*
X244647Y254336D01*
X244639Y254354D01*
X244534Y254485D01*
X238892Y260126D01*
X238818Y260179D01*
X238749Y260239D01*
X238719Y260251D01*
X238693Y260270D01*
X238606Y260297D01*
X238521Y260331D01*
X238480Y260335D01*
X238458Y260342D01*
X238425Y260341D01*
X238354Y260349D01*
X193446Y260349D01*
X193356Y260335D01*
X193265Y260327D01*
X193235Y260315D01*
X193203Y260310D01*
X193122Y260267D01*
X193039Y260231D01*
X193006Y260205D01*
X192986Y260194D01*
X192964Y260171D01*
X192908Y260126D01*
X187492Y254710D01*
X187450Y254652D01*
X187400Y254600D01*
X187378Y254553D01*
X187348Y254511D01*
X187327Y254442D01*
X187297Y254377D01*
X187291Y254325D01*
X187276Y254275D01*
X187278Y254204D01*
X187270Y254133D01*
X187281Y254082D01*
X187282Y254030D01*
X187307Y253962D01*
X187322Y253892D01*
X187349Y253847D01*
X187366Y253799D01*
X187411Y253743D01*
X187448Y253681D01*
X187488Y253647D01*
X187520Y253607D01*
X187580Y253568D01*
X187635Y253521D01*
X187683Y253502D01*
X187727Y253474D01*
X187797Y253456D01*
X187863Y253429D01*
X187934Y253421D01*
X187966Y253413D01*
X187989Y253415D01*
X188000Y253414D01*
X189962Y251452D01*
X189978Y251441D01*
X189990Y251425D01*
X190078Y251369D01*
X190161Y251309D01*
X190180Y251303D01*
X190197Y251292D01*
X190298Y251267D01*
X190397Y251237D01*
X190416Y251237D01*
X190436Y251232D01*
X190539Y251240D01*
X190642Y251243D01*
X190661Y251250D01*
X190681Y251251D01*
X190776Y251292D01*
X190873Y251327D01*
X190889Y251340D01*
X190907Y251348D01*
X191038Y251452D01*
X192997Y253411D01*
X212663Y253411D01*
X214896Y251178D01*
X214896Y238022D01*
X212663Y235789D01*
X206986Y235789D01*
X206896Y235775D01*
X206805Y235767D01*
X206775Y235755D01*
X206743Y235750D01*
X206662Y235707D01*
X206579Y235671D01*
X206546Y235645D01*
X206526Y235634D01*
X206504Y235611D01*
X206448Y235566D01*
X194097Y223216D01*
X193275Y222875D01*
X193192Y222824D01*
X193106Y222778D01*
X193088Y222759D01*
X193066Y222746D01*
X193003Y222671D01*
X192936Y222600D01*
X192925Y222576D01*
X192909Y222556D01*
X192874Y222465D01*
X192833Y222377D01*
X192830Y222351D01*
X192821Y222327D01*
X192816Y222229D01*
X192806Y222133D01*
X192811Y222107D01*
X192810Y222081D01*
X192837Y221987D01*
X192858Y221892D01*
X192871Y221870D01*
X192879Y221845D01*
X192934Y221765D01*
X192984Y221681D01*
X193004Y221664D01*
X193019Y221643D01*
X193097Y221584D01*
X193171Y221521D01*
X193195Y221511D01*
X193216Y221496D01*
X193309Y221466D01*
X193399Y221429D01*
X193432Y221426D01*
X193450Y221420D01*
X193483Y221420D01*
X193566Y221411D01*
X212663Y221411D01*
X214901Y219174D01*
X214974Y219121D01*
X215044Y219061D01*
X215074Y219049D01*
X215100Y219030D01*
X215187Y219003D01*
X215272Y218969D01*
X215313Y218965D01*
X215335Y218958D01*
X215368Y218959D01*
X215439Y218951D01*
X220463Y218951D01*
X222797Y217984D01*
X233984Y206797D01*
X234951Y204463D01*
X234951Y180746D01*
X234965Y180656D01*
X234973Y180565D01*
X234985Y180535D01*
X234990Y180503D01*
X235033Y180422D01*
X235069Y180339D01*
X235095Y180306D01*
X235106Y180286D01*
X235129Y180264D01*
X235174Y180208D01*
X240408Y174974D01*
X240482Y174921D01*
X240551Y174861D01*
X240581Y174849D01*
X240607Y174830D01*
X240694Y174803D01*
X240779Y174769D01*
X240820Y174765D01*
X240842Y174758D01*
X240875Y174759D01*
X240946Y174751D01*
X241761Y174751D01*
X241851Y174765D01*
X241942Y174773D01*
X241972Y174785D01*
X242004Y174790D01*
X242085Y174833D01*
X242169Y174869D01*
X242201Y174895D01*
X242221Y174906D01*
X242243Y174929D01*
X242300Y174974D01*
X244537Y177211D01*
X264203Y177211D01*
X266436Y174978D01*
X266436Y161822D01*
X264203Y159589D01*
X244537Y159589D01*
X242300Y161826D01*
X242226Y161879D01*
X242156Y161939D01*
X242126Y161951D01*
X242100Y161970D01*
X242013Y161997D01*
X241928Y162031D01*
X241887Y162035D01*
X241865Y162042D01*
X241833Y162041D01*
X241761Y162049D01*
X236737Y162049D01*
X234403Y163016D01*
X223216Y174203D01*
X222249Y176537D01*
X222249Y200254D01*
X222235Y200344D01*
X222227Y200435D01*
X222215Y200465D01*
X222210Y200497D01*
X222167Y200578D01*
X222131Y200661D01*
X222105Y200694D01*
X222094Y200714D01*
X222071Y200736D01*
X222026Y200792D01*
X216792Y206026D01*
X216718Y206079D01*
X216649Y206139D01*
X216619Y206151D01*
X216593Y206170D01*
X216506Y206197D01*
X216421Y206231D01*
X216380Y206235D01*
X216358Y206242D01*
X216325Y206241D01*
X216254Y206249D01*
X215439Y206249D01*
X215349Y206235D01*
X215258Y206227D01*
X215228Y206215D01*
X215196Y206210D01*
X215115Y206167D01*
X215031Y206131D01*
X214999Y206105D01*
X214979Y206094D01*
X214956Y206071D01*
X214901Y206026D01*
X212663Y203789D01*
X192997Y203789D01*
X191038Y205748D01*
X191022Y205759D01*
X191010Y205775D01*
X190922Y205831D01*
X190839Y205891D01*
X190820Y205897D01*
X190803Y205908D01*
X190702Y205933D01*
X190603Y205963D01*
X190584Y205963D01*
X190564Y205968D01*
X190461Y205960D01*
X190358Y205957D01*
X190339Y205950D01*
X190319Y205949D01*
X190224Y205908D01*
X190127Y205873D01*
X190111Y205860D01*
X190093Y205852D01*
X189962Y205748D01*
X187998Y203784D01*
X187959Y203778D01*
X187887Y203776D01*
X187838Y203758D01*
X187787Y203750D01*
X187724Y203716D01*
X187656Y203691D01*
X187616Y203659D01*
X187570Y203634D01*
X187520Y203582D01*
X187464Y203538D01*
X187436Y203494D01*
X187400Y203456D01*
X187370Y203391D01*
X187331Y203331D01*
X187319Y203280D01*
X187297Y203233D01*
X187289Y203162D01*
X187271Y203092D01*
X187275Y203040D01*
X187270Y202989D01*
X187285Y202918D01*
X187290Y202847D01*
X187311Y202799D01*
X187322Y202748D01*
X187359Y202687D01*
X187387Y202621D01*
X187431Y202565D01*
X187448Y202537D01*
X187466Y202522D01*
X187492Y202490D01*
X208584Y181397D01*
X209551Y179063D01*
X209551Y177972D01*
X209554Y177952D01*
X209552Y177933D01*
X209574Y177831D01*
X209590Y177729D01*
X209600Y177712D01*
X209604Y177692D01*
X209657Y177603D01*
X209706Y177512D01*
X209720Y177498D01*
X209730Y177481D01*
X209809Y177414D01*
X209884Y177342D01*
X209902Y177334D01*
X209917Y177321D01*
X210013Y177282D01*
X210107Y177239D01*
X210127Y177237D01*
X210145Y177229D01*
X210312Y177211D01*
X212663Y177211D01*
X214896Y174978D01*
X214896Y161822D01*
X212663Y159589D01*
X209603Y159589D01*
X209489Y159570D01*
X209372Y159553D01*
X209367Y159551D01*
X209361Y159550D01*
X209258Y159495D01*
X209153Y159442D01*
X209149Y159437D01*
X209143Y159434D01*
X209063Y159350D01*
X208981Y159266D01*
X208977Y159260D01*
X208974Y159256D01*
X208966Y159239D01*
X208900Y159119D01*
X208214Y157463D01*
X197262Y146510D01*
X197220Y146452D01*
X197170Y146400D01*
X197148Y146353D01*
X197118Y146311D01*
X197097Y146242D01*
X197067Y146177D01*
X197061Y146125D01*
X197046Y146075D01*
X197048Y146004D01*
X197040Y145933D01*
X197051Y145882D01*
X197052Y145830D01*
X197077Y145762D01*
X197092Y145692D01*
X197119Y145647D01*
X197136Y145599D01*
X197181Y145543D01*
X197218Y145481D01*
X197258Y145447D01*
X197290Y145407D01*
X197350Y145368D01*
X197405Y145321D01*
X197453Y145302D01*
X197497Y145274D01*
X197567Y145256D01*
X197633Y145229D01*
X197704Y145221D01*
X197736Y145213D01*
X197759Y145215D01*
X197800Y145211D01*
X212663Y145211D01*
X214901Y142974D01*
X214974Y142921D01*
X215044Y142861D01*
X215074Y142849D01*
X215100Y142830D01*
X215187Y142803D01*
X215272Y142769D01*
X215313Y142765D01*
X215335Y142758D01*
X215368Y142759D01*
X215439Y142751D01*
X220463Y142751D01*
X222797Y141784D01*
X233984Y130597D01*
X234951Y128263D01*
X234951Y104546D01*
X234953Y104530D01*
X234952Y104516D01*
X234966Y104452D01*
X234973Y104365D01*
X234985Y104335D01*
X234990Y104303D01*
X235003Y104279D01*
X235004Y104276D01*
X235012Y104263D01*
X235033Y104222D01*
X235069Y104139D01*
X235095Y104106D01*
X235106Y104086D01*
X235129Y104064D01*
X235174Y104008D01*
X240408Y98774D01*
X240482Y98721D01*
X240551Y98661D01*
X240581Y98649D01*
X240607Y98630D01*
X240694Y98603D01*
X240779Y98569D01*
X240820Y98565D01*
X240842Y98558D01*
X240875Y98559D01*
X240946Y98551D01*
X241761Y98551D01*
X241851Y98565D01*
X241942Y98573D01*
X241972Y98585D01*
X242004Y98590D01*
X242085Y98633D01*
X242169Y98669D01*
X242201Y98695D01*
X242221Y98706D01*
X242243Y98729D01*
X242300Y98774D01*
X244537Y101011D01*
X264203Y101011D01*
X266436Y98778D01*
X266436Y85622D01*
X264203Y83389D01*
X244537Y83389D01*
X242300Y85626D01*
X242226Y85679D01*
X242156Y85739D01*
X242126Y85751D01*
X242100Y85770D01*
X242013Y85797D01*
X241928Y85831D01*
X241887Y85835D01*
X241865Y85842D01*
X241833Y85841D01*
X241761Y85849D01*
X236737Y85849D01*
X234403Y86816D01*
X223216Y98003D01*
X222249Y100337D01*
X222249Y124054D01*
X222235Y124144D01*
X222227Y124235D01*
X222215Y124265D01*
X222210Y124297D01*
X222167Y124378D01*
X222131Y124461D01*
X222105Y124494D01*
X222094Y124514D01*
X222071Y124536D01*
X222026Y124592D01*
X216792Y129826D01*
X216718Y129879D01*
X216649Y129939D01*
X216619Y129951D01*
X216593Y129970D01*
X216506Y129997D01*
X216421Y130031D01*
X216380Y130035D01*
X216358Y130042D01*
X216325Y130041D01*
X216254Y130049D01*
X215439Y130049D01*
X215349Y130035D01*
X215258Y130027D01*
X215228Y130015D01*
X215196Y130010D01*
X215115Y129967D01*
X215031Y129931D01*
X214999Y129905D01*
X214979Y129894D01*
X214956Y129871D01*
X214901Y129826D01*
X212663Y127589D01*
X192997Y127589D01*
X191038Y129548D01*
X191022Y129559D01*
X191010Y129575D01*
X190922Y129631D01*
X190839Y129691D01*
X190820Y129697D01*
X190803Y129708D01*
X190702Y129733D01*
X190603Y129763D01*
X190584Y129763D01*
X190564Y129768D01*
X190461Y129760D01*
X190358Y129757D01*
X190339Y129750D01*
X190319Y129749D01*
X190224Y129708D01*
X190127Y129673D01*
X190111Y129660D01*
X190093Y129652D01*
X189962Y129548D01*
X187998Y127584D01*
X187959Y127578D01*
X187887Y127576D01*
X187838Y127558D01*
X187787Y127550D01*
X187724Y127516D01*
X187656Y127491D01*
X187616Y127459D01*
X187570Y127434D01*
X187520Y127382D01*
X187464Y127338D01*
X187436Y127294D01*
X187400Y127256D01*
X187370Y127191D01*
X187331Y127131D01*
X187319Y127080D01*
X187297Y127033D01*
X187289Y126962D01*
X187271Y126892D01*
X187275Y126840D01*
X187270Y126789D01*
X187285Y126718D01*
X187290Y126647D01*
X187311Y126599D01*
X187322Y126548D01*
X187359Y126487D01*
X187387Y126421D01*
X187431Y126365D01*
X187448Y126337D01*
X187466Y126322D01*
X187492Y126290D01*
X206690Y107091D01*
X208584Y105197D01*
X209551Y102863D01*
X209551Y101772D01*
X209554Y101752D01*
X209552Y101733D01*
X209574Y101631D01*
X209590Y101529D01*
X209600Y101512D01*
X209604Y101492D01*
X209657Y101403D01*
X209706Y101312D01*
X209720Y101298D01*
X209730Y101281D01*
X209809Y101214D01*
X209884Y101142D01*
X209902Y101134D01*
X209917Y101121D01*
X210013Y101082D01*
X210107Y101039D01*
X210127Y101037D01*
X210145Y101029D01*
X210312Y101011D01*
X212663Y101011D01*
X214896Y98778D01*
X214896Y85622D01*
X212663Y83389D01*
X209603Y83389D01*
X209489Y83370D01*
X209372Y83353D01*
X209367Y83351D01*
X209361Y83350D01*
X209258Y83295D01*
X209153Y83242D01*
X209149Y83237D01*
X209143Y83234D01*
X209063Y83150D01*
X208981Y83066D01*
X208977Y83060D01*
X208974Y83056D01*
X208966Y83039D01*
X208900Y82919D01*
X208214Y81263D01*
X197262Y70310D01*
X197220Y70252D01*
X197170Y70200D01*
X197148Y70153D01*
X197118Y70111D01*
X197097Y70042D01*
X197067Y69977D01*
X197061Y69925D01*
X197046Y69875D01*
X197048Y69804D01*
X197040Y69733D01*
X197051Y69682D01*
X197052Y69630D01*
X197077Y69562D01*
X197092Y69492D01*
X197119Y69447D01*
X197136Y69399D01*
X197181Y69343D01*
X197218Y69281D01*
X197258Y69247D01*
X197290Y69207D01*
X197350Y69168D01*
X197405Y69121D01*
X197453Y69102D01*
X197497Y69074D01*
X197567Y69056D01*
X197633Y69029D01*
X197704Y69021D01*
X197736Y69013D01*
X197759Y69015D01*
X197800Y69011D01*
X212663Y69011D01*
X214896Y66778D01*
X214896Y53622D01*
X212663Y51389D01*
X192997Y51389D01*
X191038Y53348D01*
X191022Y53359D01*
X191010Y53375D01*
X190937Y53422D01*
X190913Y53442D01*
X190900Y53447D01*
X190839Y53491D01*
X190820Y53497D01*
X190803Y53508D01*
X190702Y53533D01*
X190603Y53563D01*
X190584Y53563D01*
X190564Y53568D01*
X190461Y53560D01*
X190358Y53557D01*
X190339Y53550D01*
X190319Y53549D01*
X190224Y53508D01*
X190127Y53473D01*
X190111Y53460D01*
X190093Y53452D01*
X190028Y53401D01*
X190021Y53397D01*
X190014Y53389D01*
X189962Y53348D01*
X188003Y51389D01*
X168337Y51389D01*
G37*
%LPD*%
%LPC*%
G36*
X62237Y31749D02*
X62237Y31749D01*
X59903Y32716D01*
X45046Y47573D01*
X44079Y49907D01*
X44079Y50628D01*
X44076Y50648D01*
X44078Y50667D01*
X44056Y50769D01*
X44040Y50871D01*
X44030Y50888D01*
X44026Y50908D01*
X43973Y50997D01*
X43924Y51088D01*
X43910Y51102D01*
X43900Y51119D01*
X43821Y51186D01*
X43746Y51258D01*
X43728Y51266D01*
X43713Y51279D01*
X43617Y51318D01*
X43523Y51361D01*
X43503Y51363D01*
X43485Y51371D01*
X43318Y51389D01*
X40597Y51389D01*
X38364Y53622D01*
X38364Y66778D01*
X40597Y69011D01*
X60263Y69011D01*
X62496Y66778D01*
X62496Y53622D01*
X60266Y51392D01*
X60254Y51376D01*
X60239Y51363D01*
X60183Y51276D01*
X60122Y51192D01*
X60117Y51173D01*
X60106Y51156D01*
X60081Y51056D01*
X60050Y50957D01*
X60051Y50937D01*
X60046Y50918D01*
X60054Y50815D01*
X60056Y50711D01*
X60063Y50692D01*
X60065Y50673D01*
X60105Y50578D01*
X60141Y50480D01*
X60153Y50464D01*
X60161Y50446D01*
X60266Y50315D01*
X65908Y44674D01*
X65982Y44621D01*
X66051Y44561D01*
X66081Y44549D01*
X66107Y44530D01*
X66194Y44503D01*
X66279Y44469D01*
X66320Y44465D01*
X66342Y44458D01*
X66375Y44459D01*
X66446Y44451D01*
X111354Y44451D01*
X111444Y44465D01*
X111535Y44473D01*
X111565Y44485D01*
X111597Y44490D01*
X111678Y44533D01*
X111761Y44569D01*
X111794Y44595D01*
X111814Y44606D01*
X111836Y44629D01*
X111892Y44674D01*
X117308Y50090D01*
X117350Y50148D01*
X117400Y50200D01*
X117422Y50247D01*
X117452Y50289D01*
X117473Y50358D01*
X117503Y50423D01*
X117509Y50475D01*
X117524Y50525D01*
X117522Y50596D01*
X117530Y50667D01*
X117519Y50718D01*
X117518Y50770D01*
X117493Y50838D01*
X117478Y50908D01*
X117451Y50953D01*
X117434Y51001D01*
X117389Y51057D01*
X117352Y51119D01*
X117312Y51153D01*
X117280Y51193D01*
X117220Y51232D01*
X117165Y51279D01*
X117117Y51298D01*
X117073Y51326D01*
X117003Y51344D01*
X116937Y51371D01*
X116866Y51379D01*
X116834Y51387D01*
X116811Y51385D01*
X116800Y51386D01*
X114564Y53622D01*
X114564Y66778D01*
X116797Y69011D01*
X136463Y69011D01*
X138696Y66778D01*
X138696Y53622D01*
X136463Y51389D01*
X134112Y51389D01*
X134092Y51386D01*
X134073Y51388D01*
X133971Y51366D01*
X133869Y51350D01*
X133852Y51340D01*
X133832Y51336D01*
X133743Y51283D01*
X133652Y51234D01*
X133638Y51220D01*
X133621Y51210D01*
X133554Y51131D01*
X133482Y51056D01*
X133474Y51038D01*
X133461Y51023D01*
X133422Y50927D01*
X133379Y50833D01*
X133377Y50813D01*
X133369Y50795D01*
X133351Y50628D01*
X133351Y49537D01*
X132384Y47203D01*
X117897Y32716D01*
X115563Y31749D01*
X62237Y31749D01*
G37*
%LPD*%
%LPC*%
G36*
X92137Y159589D02*
X92137Y159589D01*
X89899Y161826D01*
X89826Y161879D01*
X89756Y161939D01*
X89726Y161951D01*
X89700Y161970D01*
X89613Y161997D01*
X89528Y162031D01*
X89487Y162035D01*
X89465Y162042D01*
X89432Y162041D01*
X89361Y162049D01*
X84337Y162049D01*
X82003Y163016D01*
X70816Y174203D01*
X69849Y176537D01*
X69849Y200254D01*
X69835Y200344D01*
X69827Y200435D01*
X69815Y200465D01*
X69810Y200497D01*
X69767Y200578D01*
X69731Y200661D01*
X69705Y200694D01*
X69694Y200714D01*
X69671Y200736D01*
X69626Y200792D01*
X64392Y206026D01*
X64318Y206079D01*
X64249Y206139D01*
X64219Y206151D01*
X64193Y206170D01*
X64106Y206197D01*
X64021Y206231D01*
X63980Y206235D01*
X63958Y206242D01*
X63925Y206241D01*
X63854Y206249D01*
X63039Y206249D01*
X62949Y206235D01*
X62858Y206227D01*
X62828Y206215D01*
X62796Y206210D01*
X62715Y206167D01*
X62631Y206131D01*
X62599Y206105D01*
X62579Y206094D01*
X62557Y206071D01*
X62500Y206026D01*
X60263Y203789D01*
X40597Y203789D01*
X38364Y206022D01*
X38364Y219178D01*
X40597Y221411D01*
X60263Y221411D01*
X62500Y219174D01*
X62574Y219121D01*
X62644Y219061D01*
X62674Y219049D01*
X62700Y219030D01*
X62787Y219003D01*
X62872Y218969D01*
X62913Y218965D01*
X62935Y218958D01*
X62967Y218959D01*
X63039Y218951D01*
X68063Y218951D01*
X70397Y217984D01*
X81584Y206797D01*
X82551Y204463D01*
X82551Y180746D01*
X82565Y180656D01*
X82573Y180565D01*
X82585Y180535D01*
X82590Y180503D01*
X82633Y180422D01*
X82669Y180339D01*
X82695Y180306D01*
X82706Y180286D01*
X82729Y180264D01*
X82774Y180208D01*
X88008Y174974D01*
X88082Y174921D01*
X88151Y174861D01*
X88181Y174849D01*
X88207Y174830D01*
X88294Y174803D01*
X88379Y174769D01*
X88420Y174765D01*
X88442Y174758D01*
X88475Y174759D01*
X88546Y174751D01*
X89361Y174751D01*
X89451Y174765D01*
X89542Y174773D01*
X89572Y174785D01*
X89604Y174790D01*
X89685Y174833D01*
X89769Y174869D01*
X89801Y174895D01*
X89821Y174906D01*
X89844Y174929D01*
X89899Y174974D01*
X92137Y177211D01*
X111803Y177211D01*
X114036Y174978D01*
X114036Y161822D01*
X111803Y159589D01*
X92137Y159589D01*
G37*
%LPD*%
%LPC*%
G36*
X92137Y83389D02*
X92137Y83389D01*
X89900Y85626D01*
X89826Y85679D01*
X89756Y85739D01*
X89726Y85751D01*
X89700Y85770D01*
X89613Y85797D01*
X89528Y85831D01*
X89487Y85835D01*
X89465Y85842D01*
X89433Y85841D01*
X89361Y85849D01*
X84337Y85849D01*
X82003Y86816D01*
X70816Y98003D01*
X69849Y100337D01*
X69849Y124054D01*
X69835Y124144D01*
X69827Y124235D01*
X69815Y124265D01*
X69810Y124297D01*
X69767Y124378D01*
X69731Y124461D01*
X69705Y124494D01*
X69694Y124514D01*
X69671Y124536D01*
X69626Y124592D01*
X64392Y129826D01*
X64318Y129879D01*
X64249Y129939D01*
X64219Y129951D01*
X64193Y129970D01*
X64106Y129997D01*
X64021Y130031D01*
X63980Y130035D01*
X63958Y130042D01*
X63925Y130041D01*
X63854Y130049D01*
X63039Y130049D01*
X62949Y130035D01*
X62858Y130027D01*
X62828Y130015D01*
X62796Y130010D01*
X62715Y129967D01*
X62631Y129931D01*
X62599Y129905D01*
X62579Y129894D01*
X62557Y129871D01*
X62500Y129826D01*
X60263Y127589D01*
X40597Y127589D01*
X38364Y129822D01*
X38364Y142978D01*
X40597Y145211D01*
X60263Y145211D01*
X62500Y142974D01*
X62574Y142921D01*
X62644Y142861D01*
X62674Y142849D01*
X62700Y142830D01*
X62787Y142803D01*
X62872Y142769D01*
X62913Y142765D01*
X62935Y142758D01*
X62967Y142759D01*
X63039Y142751D01*
X68063Y142751D01*
X70397Y141784D01*
X81584Y130597D01*
X82551Y128263D01*
X82551Y104546D01*
X82553Y104530D01*
X82552Y104516D01*
X82566Y104452D01*
X82573Y104365D01*
X82585Y104335D01*
X82590Y104303D01*
X82603Y104279D01*
X82604Y104276D01*
X82612Y104263D01*
X82633Y104222D01*
X82669Y104139D01*
X82695Y104106D01*
X82706Y104086D01*
X82729Y104064D01*
X82774Y104008D01*
X88008Y98774D01*
X88082Y98721D01*
X88151Y98661D01*
X88181Y98649D01*
X88207Y98630D01*
X88294Y98603D01*
X88379Y98569D01*
X88420Y98565D01*
X88442Y98558D01*
X88475Y98559D01*
X88546Y98551D01*
X89361Y98551D01*
X89451Y98565D01*
X89542Y98573D01*
X89572Y98585D01*
X89604Y98590D01*
X89685Y98633D01*
X89769Y98669D01*
X89801Y98695D01*
X89821Y98706D01*
X89843Y98729D01*
X89900Y98774D01*
X92137Y101011D01*
X111803Y101011D01*
X114036Y98778D01*
X114036Y85622D01*
X111803Y83389D01*
X92137Y83389D01*
G37*
%LPD*%
%LPC*%
G36*
X270034Y16589D02*
X270034Y16589D01*
X264462Y18897D01*
X260197Y23162D01*
X257889Y28734D01*
X257889Y34766D01*
X260197Y40338D01*
X264462Y44603D01*
X270034Y46911D01*
X276066Y46911D01*
X281638Y44603D01*
X285903Y40338D01*
X288211Y34766D01*
X288211Y28734D01*
X285903Y23162D01*
X281638Y18897D01*
X276066Y16589D01*
X270034Y16589D01*
G37*
%LPD*%
%LPC*%
G36*
X28734Y257889D02*
X28734Y257889D01*
X23162Y260197D01*
X18897Y264462D01*
X16589Y270034D01*
X16589Y276066D01*
X18897Y281638D01*
X23162Y285903D01*
X28734Y288211D01*
X34766Y288211D01*
X40338Y285903D01*
X44603Y281638D01*
X46911Y276066D01*
X46911Y270034D01*
X44603Y264462D01*
X40338Y260197D01*
X34766Y257889D01*
X28734Y257889D01*
G37*
%LPD*%
%LPC*%
G36*
X270034Y257889D02*
X270034Y257889D01*
X264462Y260197D01*
X260197Y264462D01*
X257889Y270034D01*
X257889Y276066D01*
X260197Y281638D01*
X264462Y285903D01*
X270034Y288211D01*
X276066Y288211D01*
X281638Y285903D01*
X285903Y281638D01*
X288211Y276066D01*
X288211Y270034D01*
X285903Y264462D01*
X281638Y260197D01*
X276066Y257889D01*
X270034Y257889D01*
G37*
%LPD*%
%LPC*%
G36*
X28734Y16589D02*
X28734Y16589D01*
X23162Y18897D01*
X18897Y23162D01*
X16589Y28734D01*
X16589Y34766D01*
X18897Y40338D01*
X23162Y44603D01*
X28734Y46911D01*
X34766Y46911D01*
X40338Y44603D01*
X44603Y40338D01*
X46911Y34766D01*
X46911Y28734D01*
X44603Y23162D01*
X40338Y18897D01*
X34766Y16589D01*
X28734Y16589D01*
G37*
%LPD*%
%LPC*%
G36*
X103493Y61723D02*
X103493Y61723D01*
X103493Y67741D01*
X110559Y67741D01*
X111206Y67568D01*
X111785Y67233D01*
X112258Y66760D01*
X112593Y66181D01*
X112766Y65534D01*
X112766Y61723D01*
X103493Y61723D01*
G37*
%LPD*%
%LPC*%
G36*
X128153Y169923D02*
X128153Y169923D01*
X128153Y175941D01*
X135219Y175941D01*
X135866Y175768D01*
X136445Y175433D01*
X136918Y174960D01*
X137253Y174381D01*
X137426Y173734D01*
X137426Y169923D01*
X128153Y169923D01*
G37*
%LPD*%
%LPC*%
G36*
X255893Y61723D02*
X255893Y61723D01*
X255893Y67741D01*
X262959Y67741D01*
X263606Y67568D01*
X264185Y67233D01*
X264658Y66760D01*
X264993Y66181D01*
X265166Y65534D01*
X265166Y61723D01*
X255893Y61723D01*
G37*
%LPD*%
%LPC*%
G36*
X128153Y246123D02*
X128153Y246123D01*
X128153Y252141D01*
X135219Y252141D01*
X135866Y251968D01*
X136445Y251633D01*
X136918Y251160D01*
X137253Y250581D01*
X137426Y249934D01*
X137426Y246123D01*
X128153Y246123D01*
G37*
%LPD*%
%LPC*%
G36*
X128153Y93723D02*
X128153Y93723D01*
X128153Y99741D01*
X135219Y99741D01*
X135866Y99568D01*
X136445Y99233D01*
X136918Y98760D01*
X137253Y98181D01*
X137426Y97534D01*
X137426Y93723D01*
X128153Y93723D01*
G37*
%LPD*%
%LPC*%
G36*
X103493Y214123D02*
X103493Y214123D01*
X103493Y220141D01*
X110559Y220141D01*
X111206Y219968D01*
X111785Y219633D01*
X112258Y219160D01*
X112593Y218581D01*
X112766Y217934D01*
X112766Y214123D01*
X103493Y214123D01*
G37*
%LPD*%
%LPC*%
G36*
X255893Y214123D02*
X255893Y214123D01*
X255893Y220141D01*
X262959Y220141D01*
X263606Y219968D01*
X264185Y219633D01*
X264658Y219160D01*
X264993Y218581D01*
X265166Y217934D01*
X265166Y214123D01*
X255893Y214123D01*
G37*
%LPD*%
%LPC*%
G36*
X255893Y137923D02*
X255893Y137923D01*
X255893Y143941D01*
X262959Y143941D01*
X263606Y143768D01*
X264185Y143433D01*
X264658Y142960D01*
X264993Y142381D01*
X265166Y141734D01*
X265166Y137923D01*
X255893Y137923D01*
G37*
%LPD*%
%LPC*%
G36*
X103493Y137923D02*
X103493Y137923D01*
X103493Y143941D01*
X110559Y143941D01*
X111206Y143768D01*
X111785Y143433D01*
X112258Y142960D01*
X112593Y142381D01*
X112766Y141734D01*
X112766Y137923D01*
X103493Y137923D01*
G37*
%LPD*%
%LPC*%
G36*
X91174Y61723D02*
X91174Y61723D01*
X91174Y65534D01*
X91347Y66181D01*
X91682Y66760D01*
X92155Y67233D01*
X92734Y67568D01*
X93381Y67741D01*
X100447Y67741D01*
X100447Y61723D01*
X91174Y61723D01*
G37*
%LPD*%
%LPC*%
G36*
X243574Y61723D02*
X243574Y61723D01*
X243574Y65534D01*
X243747Y66181D01*
X244082Y66760D01*
X244555Y67233D01*
X245134Y67568D01*
X245781Y67741D01*
X252847Y67741D01*
X252847Y61723D01*
X243574Y61723D01*
G37*
%LPD*%
%LPC*%
G36*
X115834Y246123D02*
X115834Y246123D01*
X115834Y249934D01*
X116007Y250581D01*
X116342Y251160D01*
X116815Y251633D01*
X117394Y251968D01*
X118041Y252141D01*
X125107Y252141D01*
X125107Y246123D01*
X115834Y246123D01*
G37*
%LPD*%
%LPC*%
G36*
X115834Y93723D02*
X115834Y93723D01*
X115834Y97534D01*
X116007Y98181D01*
X116342Y98760D01*
X116815Y99233D01*
X117394Y99568D01*
X118041Y99741D01*
X125107Y99741D01*
X125107Y93723D01*
X115834Y93723D01*
G37*
%LPD*%
%LPC*%
G36*
X91174Y214123D02*
X91174Y214123D01*
X91174Y217934D01*
X91347Y218581D01*
X91682Y219160D01*
X92155Y219633D01*
X92734Y219968D01*
X93381Y220141D01*
X100447Y220141D01*
X100447Y214123D01*
X91174Y214123D01*
G37*
%LPD*%
%LPC*%
G36*
X243574Y214123D02*
X243574Y214123D01*
X243574Y217934D01*
X243747Y218581D01*
X244082Y219160D01*
X244555Y219633D01*
X245134Y219968D01*
X245781Y220141D01*
X252847Y220141D01*
X252847Y214123D01*
X243574Y214123D01*
G37*
%LPD*%
%LPC*%
G36*
X115834Y169923D02*
X115834Y169923D01*
X115834Y173734D01*
X116007Y174381D01*
X116342Y174960D01*
X116815Y175433D01*
X117394Y175768D01*
X118041Y175941D01*
X125107Y175941D01*
X125107Y169923D01*
X115834Y169923D01*
G37*
%LPD*%
%LPC*%
G36*
X243574Y137923D02*
X243574Y137923D01*
X243574Y141734D01*
X243747Y142381D01*
X244082Y142960D01*
X244555Y143433D01*
X245134Y143768D01*
X245781Y143941D01*
X252847Y143941D01*
X252847Y137923D01*
X243574Y137923D01*
G37*
%LPD*%
%LPC*%
G36*
X91174Y137923D02*
X91174Y137923D01*
X91174Y141734D01*
X91347Y142381D01*
X91682Y142960D01*
X92155Y143433D01*
X92734Y143768D01*
X93381Y143941D01*
X100447Y143941D01*
X100447Y137923D01*
X91174Y137923D01*
G37*
%LPD*%
%LPC*%
G36*
X128153Y237059D02*
X128153Y237059D01*
X128153Y243077D01*
X137426Y243077D01*
X137426Y239265D01*
X137253Y238619D01*
X136918Y238040D01*
X136445Y237567D01*
X135866Y237232D01*
X135219Y237059D01*
X128153Y237059D01*
G37*
%LPD*%
%LPC*%
G36*
X103493Y205059D02*
X103493Y205059D01*
X103493Y211077D01*
X112766Y211077D01*
X112766Y207265D01*
X112593Y206619D01*
X112258Y206040D01*
X111785Y205567D01*
X111206Y205232D01*
X110559Y205059D01*
X103493Y205059D01*
G37*
%LPD*%
%LPC*%
G36*
X255893Y205059D02*
X255893Y205059D01*
X255893Y211077D01*
X265166Y211077D01*
X265166Y207265D01*
X264993Y206619D01*
X264658Y206040D01*
X264185Y205567D01*
X263606Y205232D01*
X262959Y205059D01*
X255893Y205059D01*
G37*
%LPD*%
%LPC*%
G36*
X128153Y84659D02*
X128153Y84659D01*
X128153Y90677D01*
X137426Y90677D01*
X137426Y86865D01*
X137253Y86219D01*
X136918Y85640D01*
X136445Y85167D01*
X135866Y84832D01*
X135219Y84659D01*
X128153Y84659D01*
G37*
%LPD*%
%LPC*%
G36*
X128153Y160859D02*
X128153Y160859D01*
X128153Y166877D01*
X137426Y166877D01*
X137426Y163065D01*
X137253Y162419D01*
X136918Y161840D01*
X136445Y161367D01*
X135866Y161032D01*
X135219Y160859D01*
X128153Y160859D01*
G37*
%LPD*%
%LPC*%
G36*
X103493Y128859D02*
X103493Y128859D01*
X103493Y134877D01*
X112766Y134877D01*
X112766Y131065D01*
X112593Y130419D01*
X112258Y129840D01*
X111785Y129367D01*
X111206Y129032D01*
X110559Y128859D01*
X103493Y128859D01*
G37*
%LPD*%
%LPC*%
G36*
X255893Y128859D02*
X255893Y128859D01*
X255893Y134877D01*
X265166Y134877D01*
X265166Y131065D01*
X264993Y130419D01*
X264658Y129840D01*
X264185Y129367D01*
X263606Y129032D01*
X262959Y128859D01*
X255893Y128859D01*
G37*
%LPD*%
%LPC*%
G36*
X255893Y52659D02*
X255893Y52659D01*
X255893Y58677D01*
X265166Y58677D01*
X265166Y54865D01*
X264993Y54219D01*
X264658Y53640D01*
X264185Y53167D01*
X263606Y52832D01*
X262959Y52659D01*
X255893Y52659D01*
G37*
%LPD*%
%LPC*%
G36*
X103493Y52659D02*
X103493Y52659D01*
X103493Y58677D01*
X112766Y58677D01*
X112766Y54865D01*
X112593Y54219D01*
X112258Y53640D01*
X111785Y53167D01*
X111206Y52832D01*
X110559Y52659D01*
X103493Y52659D01*
G37*
%LPD*%
%LPC*%
G36*
X245781Y205059D02*
X245781Y205059D01*
X245134Y205232D01*
X244555Y205567D01*
X244082Y206040D01*
X243747Y206619D01*
X243574Y207266D01*
X243574Y211077D01*
X252847Y211077D01*
X252847Y205059D01*
X245781Y205059D01*
G37*
%LPD*%
%LPC*%
G36*
X245781Y128859D02*
X245781Y128859D01*
X245134Y129032D01*
X244555Y129367D01*
X244082Y129840D01*
X243747Y130419D01*
X243574Y131066D01*
X243574Y134877D01*
X252847Y134877D01*
X252847Y128859D01*
X245781Y128859D01*
G37*
%LPD*%
%LPC*%
G36*
X93381Y128859D02*
X93381Y128859D01*
X92734Y129032D01*
X92155Y129367D01*
X91682Y129840D01*
X91347Y130419D01*
X91174Y131066D01*
X91174Y134877D01*
X100447Y134877D01*
X100447Y128859D01*
X93381Y128859D01*
G37*
%LPD*%
%LPC*%
G36*
X118041Y237059D02*
X118041Y237059D01*
X117394Y237232D01*
X116815Y237567D01*
X116342Y238040D01*
X116007Y238619D01*
X115834Y239266D01*
X115834Y243077D01*
X125107Y243077D01*
X125107Y237059D01*
X118041Y237059D01*
G37*
%LPD*%
%LPC*%
G36*
X118041Y84659D02*
X118041Y84659D01*
X117394Y84832D01*
X116815Y85167D01*
X116342Y85640D01*
X116007Y86219D01*
X115834Y86866D01*
X115834Y90677D01*
X125107Y90677D01*
X125107Y84659D01*
X118041Y84659D01*
G37*
%LPD*%
%LPC*%
G36*
X118041Y160859D02*
X118041Y160859D01*
X117394Y161032D01*
X116815Y161367D01*
X116342Y161840D01*
X116007Y162419D01*
X115834Y163066D01*
X115834Y166877D01*
X125107Y166877D01*
X125107Y160859D01*
X118041Y160859D01*
G37*
%LPD*%
%LPC*%
G36*
X93381Y205059D02*
X93381Y205059D01*
X92734Y205232D01*
X92155Y205567D01*
X91682Y206040D01*
X91347Y206619D01*
X91174Y207266D01*
X91174Y211077D01*
X100447Y211077D01*
X100447Y205059D01*
X93381Y205059D01*
G37*
%LPD*%
%LPC*%
G36*
X245781Y52659D02*
X245781Y52659D01*
X245134Y52832D01*
X244555Y53167D01*
X244082Y53640D01*
X243747Y54219D01*
X243574Y54866D01*
X243574Y58677D01*
X252847Y58677D01*
X252847Y52659D01*
X245781Y52659D01*
G37*
%LPD*%
%LPC*%
G36*
X93381Y52659D02*
X93381Y52659D01*
X92734Y52832D01*
X92155Y53167D01*
X91682Y53640D01*
X91347Y54219D01*
X91174Y54866D01*
X91174Y58677D01*
X100447Y58677D01*
X100447Y52659D01*
X93381Y52659D01*
G37*
%LPD*%
%LPC*%
G36*
X143923Y274573D02*
X143923Y274573D01*
X143923Y282591D01*
X148234Y282591D01*
X148881Y282418D01*
X149460Y282083D01*
X149933Y281610D01*
X150268Y281031D01*
X150441Y280384D01*
X150441Y274573D01*
X143923Y274573D01*
G37*
%LPD*%
%LPC*%
G36*
X143923Y263509D02*
X143923Y263509D01*
X143923Y271527D01*
X150441Y271527D01*
X150441Y265716D01*
X150268Y265069D01*
X149933Y264490D01*
X149460Y264017D01*
X148881Y263682D01*
X148234Y263509D01*
X143923Y263509D01*
G37*
%LPD*%
%LPC*%
G36*
X134359Y274573D02*
X134359Y274573D01*
X134359Y280384D01*
X134532Y281031D01*
X134867Y281610D01*
X135340Y282083D01*
X135919Y282418D01*
X136566Y282591D01*
X140877Y282591D01*
X140877Y274573D01*
X134359Y274573D01*
G37*
%LPD*%
%LPC*%
G36*
X136566Y263509D02*
X136566Y263509D01*
X135919Y263682D01*
X135340Y264017D01*
X134867Y264490D01*
X134532Y265069D01*
X134359Y265716D01*
X134359Y271527D01*
X140877Y271527D01*
X140877Y263509D01*
X136566Y263509D01*
G37*
%LPD*%
%LPC*%
G36*
X64459Y281499D02*
X64459Y281499D01*
X64459Y288084D01*
X64632Y288731D01*
X64967Y289310D01*
X65440Y289783D01*
X66019Y290118D01*
X66666Y290291D01*
X68501Y290291D01*
X68501Y281499D01*
X64459Y281499D01*
G37*
%LPD*%
%LPC*%
G36*
X66666Y269709D02*
X66666Y269709D01*
X66019Y269882D01*
X65440Y270217D01*
X64967Y270690D01*
X64632Y271269D01*
X64459Y271916D01*
X64459Y278501D01*
X68501Y278501D01*
X68501Y269709D01*
X66666Y269709D01*
G37*
%LPD*%
%LPC*%
G36*
X254369Y212599D02*
X254369Y212599D01*
X254369Y212601D01*
X254371Y212601D01*
X254371Y212599D01*
X254369Y212599D01*
G37*
%LPD*%
%LPC*%
G36*
X254369Y136399D02*
X254369Y136399D01*
X254369Y136401D01*
X254371Y136401D01*
X254371Y136399D01*
X254369Y136399D01*
G37*
%LPD*%
%LPC*%
G36*
X101969Y136399D02*
X101969Y136399D01*
X101969Y136401D01*
X101971Y136401D01*
X101971Y136399D01*
X101969Y136399D01*
G37*
%LPD*%
%LPC*%
G36*
X126629Y168399D02*
X126629Y168399D01*
X126629Y168401D01*
X126631Y168401D01*
X126631Y168399D01*
X126629Y168399D01*
G37*
%LPD*%
%LPC*%
G36*
X126629Y92199D02*
X126629Y92199D01*
X126629Y92201D01*
X126631Y92201D01*
X126631Y92199D01*
X126629Y92199D01*
G37*
%LPD*%
%LPC*%
G36*
X126629Y244599D02*
X126629Y244599D01*
X126629Y244601D01*
X126631Y244601D01*
X126631Y244599D01*
X126629Y244599D01*
G37*
%LPD*%
%LPC*%
G36*
X142399Y273049D02*
X142399Y273049D01*
X142399Y273051D01*
X142401Y273051D01*
X142401Y273049D01*
X142399Y273049D01*
G37*
%LPD*%
%LPC*%
G36*
X101969Y60199D02*
X101969Y60199D01*
X101969Y60201D01*
X101971Y60201D01*
X101971Y60199D01*
X101969Y60199D01*
G37*
%LPD*%
%LPC*%
G36*
X101969Y212599D02*
X101969Y212599D01*
X101969Y212601D01*
X101971Y212601D01*
X101971Y212599D01*
X101969Y212599D01*
G37*
%LPD*%
%LPC*%
G36*
X254369Y60199D02*
X254369Y60199D01*
X254369Y60201D01*
X254371Y60201D01*
X254371Y60199D01*
X254369Y60199D01*
G37*
%LPD*%
D10*
X50430Y244600D03*
X101970Y244600D03*
X101970Y212600D03*
X50430Y212600D03*
X178170Y212600D03*
X126630Y212600D03*
X126630Y244600D03*
X178170Y244600D03*
X202830Y244600D03*
X254370Y244600D03*
X254370Y212600D03*
X202830Y212600D03*
X50430Y168400D03*
X101970Y168400D03*
X101970Y136400D03*
X50430Y136400D03*
X178170Y136400D03*
X126630Y136400D03*
X126630Y168400D03*
X178170Y168400D03*
X202830Y168400D03*
X254370Y168400D03*
X254370Y136400D03*
X202830Y136400D03*
X50430Y92200D03*
X101970Y92200D03*
X101970Y60200D03*
X50430Y60200D03*
X178170Y60200D03*
X126630Y60200D03*
X126630Y92200D03*
X178170Y92200D03*
X202830Y92200D03*
X254370Y92200D03*
X254370Y60200D03*
X202830Y60200D03*
D11*
X162400Y273050D03*
X142400Y273050D03*
D12*
X90000Y280000D03*
X80000Y280000D03*
X70000Y280000D03*
D13*
X103000Y318750D03*
X57000Y318750D03*
D14*
X50430Y212600D02*
X66800Y212600D01*
X76200Y203200D01*
X85600Y168400D02*
X101970Y168400D01*
X85600Y168400D02*
X76200Y177800D01*
X76200Y203200D01*
X66800Y136400D02*
X50430Y136400D01*
X66800Y136400D02*
X76200Y127000D01*
X85600Y92200D02*
X101970Y92200D01*
X85600Y92200D02*
X76200Y101600D01*
X76200Y127000D01*
X50430Y60200D02*
X50430Y51170D01*
X63500Y38100D01*
X114300Y38100D01*
X127000Y50800D01*
X127000Y59830D01*
X126630Y60200D01*
X161800Y92200D02*
X178170Y92200D01*
X161800Y92200D02*
X152400Y101600D01*
X143000Y136400D02*
X126630Y136400D01*
X143000Y136400D02*
X152400Y127000D01*
X152400Y101600D01*
X161800Y168400D02*
X178170Y168400D01*
X161800Y168400D02*
X152400Y177800D01*
X143000Y212600D02*
X126630Y212600D01*
X143000Y212600D02*
X152400Y203200D01*
X152400Y177800D01*
X178170Y244600D02*
X178170Y254370D01*
X190500Y266700D01*
X241300Y266700D02*
X254000Y254000D01*
X254000Y244970D01*
X254370Y244600D01*
X241300Y266700D02*
X190500Y266700D01*
X202830Y212600D02*
X219200Y212600D01*
X228600Y203200D01*
X238000Y168400D02*
X254370Y168400D01*
X238000Y168400D02*
X228600Y177800D01*
X228600Y203200D01*
X219200Y136400D02*
X202830Y136400D01*
X219200Y136400D02*
X228600Y127000D01*
X238000Y92200D02*
X254370Y92200D01*
X238000Y92200D02*
X228600Y101600D01*
X228600Y127000D01*
X101970Y244600D02*
X98300Y244600D01*
X90000Y252900D02*
X88900Y254000D01*
X96450Y246450D02*
X98300Y244600D01*
X90000Y252900D02*
X90000Y280000D01*
X90000Y252900D02*
X96450Y246450D01*
X120000Y78230D02*
X101970Y60200D01*
X120000Y85570D02*
X126630Y92200D01*
X120000Y85570D02*
X120000Y78230D01*
X126630Y92200D02*
X126630Y113370D01*
X103600Y136400D02*
X101970Y136400D01*
X103600Y136400D02*
X126630Y113370D01*
X101970Y136400D02*
X120000Y154430D01*
X120000Y170000D01*
X125030Y170000D01*
X126630Y168400D01*
X110000Y185030D01*
X110000Y204570D02*
X101970Y212600D01*
X110000Y204570D02*
X110000Y185030D01*
X126950Y273050D02*
X142400Y273050D01*
X126950Y273050D02*
X120000Y280000D01*
X142400Y273050D02*
X150000Y280650D01*
X150000Y290000D01*
X240000Y290000D01*
X280382Y290750D02*
X290750Y280382D01*
X290750Y265718D01*
X270000Y244968D02*
X270000Y220000D01*
X270000Y244968D02*
X290750Y265718D01*
X270000Y220000D02*
X261770Y220000D01*
X254370Y212600D01*
X70650Y280650D02*
X70650Y290380D01*
X70650Y280650D02*
X70000Y280000D01*
X254370Y212600D02*
X266970Y200000D01*
X270000Y200000D01*
X264170Y70000D02*
X280000Y70000D01*
X264170Y70000D02*
X254370Y60200D01*
X148830Y70000D02*
X126630Y92200D01*
X148830Y70000D02*
X150000Y70000D01*
X150000Y40000D01*
X230000Y40000D01*
X250200Y60200D02*
X254370Y60200D01*
X250200Y60200D02*
X230000Y40000D01*
X254370Y136400D02*
X257970Y140000D01*
X270000Y140000D01*
X270000Y200000D01*
X270000Y140000D02*
X280000Y130000D01*
X280000Y70000D01*
X126630Y244600D02*
X120000Y251230D01*
X120000Y280000D01*
X240000Y290000D02*
X240750Y290750D01*
X280382Y290750D01*
X152400Y254000D02*
X152400Y228600D01*
X63500Y257670D02*
X50430Y244600D01*
X41400Y244600D01*
X25400Y228600D01*
X34800Y168400D02*
X50430Y168400D01*
X34800Y168400D02*
X25400Y177800D01*
X25400Y228600D01*
X34800Y92200D02*
X50430Y92200D01*
X34800Y92200D02*
X25400Y101600D01*
X25400Y159000D01*
X34800Y168400D01*
X50430Y244600D02*
X60200Y244600D01*
X76200Y228600D01*
X152400Y228600D02*
X177800Y228600D01*
X152400Y228600D02*
X76200Y228600D01*
X177800Y228600D02*
X177800Y212970D01*
X178170Y212600D01*
X203200Y244230D02*
X202830Y244600D01*
X178170Y212600D02*
X178170Y202830D01*
X203200Y168770D02*
X202830Y168400D01*
X202830Y161060D01*
X178170Y136400D01*
X178170Y126630D01*
X203200Y101600D01*
X203200Y92570D01*
X202830Y92200D01*
X202830Y84860D01*
X178170Y60200D01*
X202830Y240930D02*
X202830Y244600D01*
X202830Y240930D02*
X190500Y228600D01*
X177800Y228600D01*
X203200Y177800D02*
X203200Y168770D01*
X203200Y177800D02*
X178170Y202830D01*
X162400Y264000D02*
X162400Y273050D01*
X162400Y264000D02*
X152400Y254000D01*
X80000Y260000D02*
X80000Y280000D01*
X80000Y260000D02*
X77670Y257670D01*
X63500Y257670D01*
M02*
