G04 EAGLE Gerber RS-274X export*
G75*
%MOMM*%
%FSLAX34Y34*%
%LPD*%
%INSilkscreen Top*%
%IPPOS*%
%AMOC8*
5,1,8,0,0,1.08239X$1,22.5*%
G01*
%ADD10C,0.203200*%
%ADD11C,0.406400*%
%ADD12C,0.127000*%
%ADD13C,0.076200*%
%ADD14C,0.152400*%


D10*
X51308Y252222D02*
X51308Y254762D01*
X51816Y254762D01*
X51816Y254711D01*
X101321Y254711D01*
X101321Y252400D01*
X51105Y205410D02*
X51105Y202692D01*
X51613Y202692D01*
X51613Y202667D01*
X101295Y202667D01*
X101295Y204927D01*
X50800Y219710D02*
X50800Y236728D01*
X101600Y237236D02*
X101600Y228600D01*
X101600Y219964D01*
X101600Y228600D02*
X76200Y203200D01*
D11*
X104775Y200025D03*
D12*
X71222Y200029D02*
X71222Y195199D01*
X73637Y195199D01*
X74442Y196004D01*
X74442Y199224D01*
X73637Y200029D01*
X71222Y200029D01*
X76835Y198419D02*
X78445Y200029D01*
X78445Y195199D01*
X76835Y195199D02*
X80055Y195199D01*
D10*
X177292Y202438D02*
X177292Y204978D01*
X177292Y202438D02*
X176784Y202438D01*
X176784Y202489D01*
X127279Y202489D01*
X127279Y204800D01*
X177495Y251790D02*
X177495Y254508D01*
X176987Y254508D01*
X176987Y254533D01*
X127305Y254533D01*
X127305Y252273D01*
X177800Y237490D02*
X177800Y220472D01*
X127000Y219964D02*
X127000Y228600D01*
X127000Y237236D01*
X127000Y228600D02*
X152400Y254000D01*
D11*
X123825Y257175D03*
D12*
X147422Y257175D02*
X147422Y262005D01*
X147422Y257175D02*
X149837Y257175D01*
X150642Y257980D01*
X150642Y261200D01*
X149837Y262005D01*
X147422Y262005D01*
X153035Y257175D02*
X156255Y257175D01*
X153035Y257175D02*
X156255Y260395D01*
X156255Y261200D01*
X155450Y262005D01*
X153840Y262005D01*
X153035Y261200D01*
D10*
X203708Y254762D02*
X203708Y252222D01*
X203708Y254762D02*
X204216Y254762D01*
X204216Y254711D01*
X253721Y254711D01*
X253721Y252400D01*
X203505Y205410D02*
X203505Y202692D01*
X204013Y202692D01*
X204013Y202667D01*
X253695Y202667D01*
X253695Y204927D01*
X203200Y219710D02*
X203200Y236728D01*
X254000Y237236D02*
X254000Y228600D01*
X254000Y219964D01*
X254000Y228600D02*
X228600Y203200D01*
D11*
X257175Y200025D03*
D12*
X223622Y200029D02*
X223622Y195199D01*
X226037Y195199D01*
X226842Y196004D01*
X226842Y199224D01*
X226037Y200029D01*
X223622Y200029D01*
X229235Y199224D02*
X230040Y200029D01*
X231650Y200029D01*
X232455Y199224D01*
X232455Y198419D01*
X231650Y197614D01*
X230845Y197614D01*
X231650Y197614D02*
X232455Y196809D01*
X232455Y196004D01*
X231650Y195199D01*
X230040Y195199D01*
X229235Y196004D01*
D10*
X51308Y178562D02*
X51308Y176022D01*
X51308Y178562D02*
X51816Y178562D01*
X51816Y178511D01*
X101321Y178511D01*
X101321Y176200D01*
X51105Y129210D02*
X51105Y126492D01*
X51613Y126492D01*
X51613Y126467D01*
X101295Y126467D01*
X101295Y128727D01*
X50800Y143510D02*
X50800Y160528D01*
X101600Y161036D02*
X101600Y152400D01*
X101600Y143764D01*
X101600Y152400D02*
X76200Y127000D01*
D11*
X104775Y123825D03*
D12*
X71222Y123829D02*
X71222Y118999D01*
X73637Y118999D01*
X74442Y119804D01*
X74442Y123024D01*
X73637Y123829D01*
X71222Y123829D01*
X79250Y123829D02*
X79250Y118999D01*
X76835Y121414D02*
X79250Y123829D01*
X80055Y121414D02*
X76835Y121414D01*
D10*
X177292Y126238D02*
X177292Y128778D01*
X177292Y126238D02*
X176784Y126238D01*
X176784Y126289D01*
X127279Y126289D01*
X127279Y128600D01*
X177495Y175590D02*
X177495Y178308D01*
X176987Y178308D01*
X176987Y178333D01*
X127305Y178333D01*
X127305Y176073D01*
X177800Y161290D02*
X177800Y144272D01*
X127000Y143764D02*
X127000Y152400D01*
X127000Y161036D01*
X127000Y152400D02*
X152400Y177800D01*
D11*
X123825Y180975D03*
D12*
X147422Y180975D02*
X147422Y185805D01*
X147422Y180975D02*
X149837Y180975D01*
X150642Y181780D01*
X150642Y185000D01*
X149837Y185805D01*
X147422Y185805D01*
X153035Y185805D02*
X156255Y185805D01*
X153035Y185805D02*
X153035Y183390D01*
X154645Y184195D01*
X155450Y184195D01*
X156255Y183390D01*
X156255Y181780D01*
X155450Y180975D01*
X153840Y180975D01*
X153035Y181780D01*
D10*
X203708Y178562D02*
X203708Y176022D01*
X203708Y178562D02*
X204216Y178562D01*
X204216Y178511D01*
X253721Y178511D01*
X253721Y176200D01*
X203505Y129210D02*
X203505Y126492D01*
X204013Y126492D01*
X204013Y126467D01*
X253695Y126467D01*
X253695Y128727D01*
X203200Y143510D02*
X203200Y160528D01*
X254000Y161036D02*
X254000Y152400D01*
X254000Y143764D01*
X254000Y152400D02*
X228600Y127000D01*
D11*
X257175Y123825D03*
D12*
X223622Y123829D02*
X223622Y118999D01*
X226037Y118999D01*
X226842Y119804D01*
X226842Y123024D01*
X226037Y123829D01*
X223622Y123829D01*
X230845Y123024D02*
X232455Y123829D01*
X230845Y123024D02*
X229235Y121414D01*
X229235Y119804D01*
X230040Y118999D01*
X231650Y118999D01*
X232455Y119804D01*
X232455Y120609D01*
X231650Y121414D01*
X229235Y121414D01*
D10*
X51308Y102362D02*
X51308Y99822D01*
X51308Y102362D02*
X51816Y102362D01*
X51816Y102311D01*
X101321Y102311D01*
X101321Y100000D01*
X51105Y53010D02*
X51105Y50292D01*
X51613Y50292D01*
X51613Y50267D01*
X101295Y50267D01*
X101295Y52527D01*
X50800Y67310D02*
X50800Y84328D01*
X101600Y84836D02*
X101600Y76200D01*
X101600Y67564D01*
X101600Y76200D02*
X76200Y50800D01*
D11*
X104775Y47625D03*
D12*
X71222Y47629D02*
X71222Y42799D01*
X73637Y42799D01*
X74442Y43604D01*
X74442Y46824D01*
X73637Y47629D01*
X71222Y47629D01*
X76835Y47629D02*
X80055Y47629D01*
X80055Y46824D01*
X76835Y43604D01*
X76835Y42799D01*
D10*
X177292Y50038D02*
X177292Y52578D01*
X177292Y50038D02*
X176784Y50038D01*
X176784Y50089D01*
X127279Y50089D01*
X127279Y52400D01*
X177495Y99390D02*
X177495Y102108D01*
X176987Y102108D01*
X176987Y102133D01*
X127305Y102133D01*
X127305Y99873D01*
X177800Y85090D02*
X177800Y68072D01*
X127000Y67564D02*
X127000Y76200D01*
X127000Y84836D01*
X127000Y76200D02*
X152400Y101600D01*
D11*
X123825Y104775D03*
D12*
X147422Y104775D02*
X147422Y109605D01*
X147422Y104775D02*
X149837Y104775D01*
X150642Y105580D01*
X150642Y108800D01*
X149837Y109605D01*
X147422Y109605D01*
X153035Y108800D02*
X153840Y109605D01*
X155450Y109605D01*
X156255Y108800D01*
X156255Y107995D01*
X155450Y107190D01*
X156255Y106385D01*
X156255Y105580D01*
X155450Y104775D01*
X153840Y104775D01*
X153035Y105580D01*
X153035Y106385D01*
X153840Y107190D01*
X153035Y107995D01*
X153035Y108800D01*
X153840Y107190D02*
X155450Y107190D01*
D10*
X203708Y102362D02*
X203708Y99822D01*
X203708Y102362D02*
X204216Y102362D01*
X204216Y102311D01*
X253721Y102311D01*
X253721Y100000D01*
X203505Y53010D02*
X203505Y50292D01*
X204013Y50292D01*
X204013Y50267D01*
X253695Y50267D01*
X253695Y52527D01*
X203200Y67310D02*
X203200Y84328D01*
X254000Y84836D02*
X254000Y76200D01*
X254000Y67564D01*
X254000Y76200D02*
X228600Y50800D01*
D11*
X257175Y47625D03*
D12*
X223622Y47629D02*
X223622Y42799D01*
X226037Y42799D01*
X226842Y43604D01*
X226842Y46824D01*
X226037Y47629D01*
X223622Y47629D01*
X229235Y43604D02*
X230040Y42799D01*
X231650Y42799D01*
X232455Y43604D01*
X232455Y46824D01*
X231650Y47629D01*
X230040Y47629D01*
X229235Y46824D01*
X229235Y46019D01*
X230040Y45214D01*
X232455Y45214D01*
D13*
X150341Y262359D02*
X148774Y263927D01*
X145638Y263927D01*
X144071Y262359D01*
X144071Y256089D01*
X145638Y254521D01*
X148774Y254521D01*
X150341Y256089D01*
X153426Y260792D02*
X156561Y263927D01*
X156561Y254521D01*
X153426Y254521D02*
X159697Y254521D01*
D14*
X95000Y325750D02*
X65000Y325750D01*
X105000Y308000D02*
X105000Y283250D01*
X95000Y283250D01*
X65000Y283250D02*
X55000Y283250D01*
X55000Y308000D01*
D13*
X115773Y290076D02*
X125179Y296347D01*
X125179Y290076D02*
X115773Y296347D01*
X118908Y299431D02*
X115773Y302566D01*
X125179Y302566D01*
X125179Y299431D02*
X125179Y305702D01*
M02*
