G04 EAGLE Gerber RS-274X export*
G75*
%MOMM*%
%FSLAX34Y34*%
%LPD*%
%INSoldermask Top*%
%IPPOS*%
%AMOC8*
5,1,8,0,0,1.08239X$1,22.5*%
G01*
%ADD10C,1.203200*%
%ADD11R,1.854200X1.203200*%
%ADD12R,1.303200X1.603200*%
%ADD13R,0.803200X1.753200*%
%ADD14R,1.403200X2.003200*%


D10*
X31750Y273050D03*
X31750Y31750D03*
X273050Y31750D03*
X273050Y273050D03*
D11*
X50430Y244600D03*
X101970Y244600D03*
X101970Y212600D03*
X50430Y212600D03*
X178170Y212600D03*
X126630Y212600D03*
X126630Y244600D03*
X178170Y244600D03*
X202830Y244600D03*
X254370Y244600D03*
X254370Y212600D03*
X202830Y212600D03*
X50430Y168400D03*
X101970Y168400D03*
X101970Y136400D03*
X50430Y136400D03*
X178170Y136400D03*
X126630Y136400D03*
X126630Y168400D03*
X178170Y168400D03*
X202830Y168400D03*
X254370Y168400D03*
X254370Y136400D03*
X202830Y136400D03*
X50430Y92200D03*
X101970Y92200D03*
X101970Y60200D03*
X50430Y60200D03*
X178170Y60200D03*
X126630Y60200D03*
X126630Y92200D03*
X178170Y92200D03*
X202830Y92200D03*
X254370Y92200D03*
X254370Y60200D03*
X202830Y60200D03*
D12*
X162400Y273050D03*
X142400Y273050D03*
D13*
X90000Y280000D03*
X80000Y280000D03*
X70000Y280000D03*
D14*
X103000Y318750D03*
X57000Y318750D03*
M02*
