G04 #@! TF.GenerationSoftware,KiCad,Pcbnew,(5.0.1)-4*
G04 #@! TF.CreationDate,2020-03-01T18:01:36+00:00*
G04 #@! TF.ProjectId,neopixels,6E656F706978656C732E6B696361645F,rev?*
G04 #@! TF.SameCoordinates,PX463f660PY4718708*
G04 #@! TF.FileFunction,Legend,Top*
G04 #@! TF.FilePolarity,Positive*
%FSLAX46Y46*%
G04 Gerber Fmt 4.6, Leading zero omitted, Abs format (unit mm)*
G04 Created by KiCad (PCBNEW (5.0.1)-4) date 01/03/2020 18:01:36*
%MOMM*%
%LPD*%
G01*
G04 APERTURE LIST*
%ADD10C,0.120000*%
%ADD11C,0.150000*%
G04 APERTURE END LIST*
D10*
G04 #@! TO.C,D1*
X20604000Y2750000D02*
X27904000Y2750000D01*
X20604000Y-2750000D02*
X27904000Y-2750000D01*
X27904000Y-2750000D02*
X27904000Y-1600000D01*
G04 #@! TO.C,D2*
X20881318Y-19713804D02*
X20881318Y-18563804D01*
X13581318Y-19713804D02*
X20881318Y-19713804D01*
X13581318Y-14213804D02*
X20881318Y-14213804D01*
G04 #@! TO.C,D3*
X-3376888Y-21249900D02*
X3923112Y-21249900D01*
X-3376888Y-26749900D02*
X3923112Y-26749900D01*
X3923112Y-26749900D02*
X3923112Y-25599900D01*
G04 #@! TO.C,D4*
X-13046279Y-19740822D02*
X-13046279Y-18590822D01*
X-20346279Y-19740822D02*
X-13046279Y-19740822D01*
X-20346279Y-14240822D02*
X-13046279Y-14240822D01*
G04 #@! TO.C,D5*
X-20095970Y-2788224D02*
X-27395970Y-2788224D01*
X-20095970Y2711776D02*
X-27395970Y2711776D01*
X-27395970Y2711776D02*
X-27395970Y1561776D01*
G04 #@! TO.C,D6*
X-13100314Y14186744D02*
X-13100314Y15336744D01*
X-20400314Y14186744D02*
X-13100314Y14186744D01*
X-20400314Y19686744D02*
X-13100314Y19686744D01*
G04 #@! TO.C,D7*
X-3453335Y26749932D02*
X3846665Y26749932D01*
X-3453335Y21249932D02*
X3846665Y21249932D01*
X3846665Y21249932D02*
X3846665Y22399932D01*
G04 #@! TO.C,D8*
X17813594Y12492313D02*
X18626767Y13305485D01*
X12651715Y17654192D02*
X17813594Y12492313D01*
X16540802Y21543279D02*
X21702681Y16381400D01*
G04 #@! TO.C,J1*
X22350119Y11802419D02*
X21239305Y11504777D01*
X21239305Y11504777D02*
X21511065Y10490555D01*
X21511065Y10490555D02*
X20554798Y10234324D01*
X23701155Y6760286D02*
X22590340Y6462644D01*
X22590340Y6462644D02*
X22318580Y7476867D01*
X24555811Y11182159D02*
X25301210Y8400293D01*
G04 #@! TO.C,D1*
D11*
X23515904Y3047620D02*
X23515904Y4047620D01*
X23754000Y4047620D01*
X23896857Y4000000D01*
X23992095Y3904762D01*
X24039714Y3809524D01*
X24087333Y3619048D01*
X24087333Y3476191D01*
X24039714Y3285715D01*
X23992095Y3190477D01*
X23896857Y3095239D01*
X23754000Y3047620D01*
X23515904Y3047620D01*
X25039714Y3047620D02*
X24468285Y3047620D01*
X24754000Y3047620D02*
X24754000Y4047620D01*
X24658761Y3904762D01*
X24563523Y3809524D01*
X24468285Y3761905D01*
X20389714Y1147620D02*
X19818285Y1147620D01*
X20104000Y1147620D02*
X20104000Y2147620D01*
X20008761Y2004762D01*
X19913523Y1909524D01*
X19818285Y1861905D01*
G04 #@! TO.C,D2*
X16493222Y-13916184D02*
X16493222Y-12916184D01*
X16731318Y-12916184D01*
X16874175Y-12963804D01*
X16969413Y-13059042D01*
X17017032Y-13154280D01*
X17064651Y-13344756D01*
X17064651Y-13487613D01*
X17017032Y-13678089D01*
X16969413Y-13773327D01*
X16874175Y-13868565D01*
X16731318Y-13916184D01*
X16493222Y-13916184D01*
X17445603Y-13011423D02*
X17493222Y-12963804D01*
X17588460Y-12916184D01*
X17826556Y-12916184D01*
X17921794Y-12963804D01*
X17969413Y-13011423D01*
X18017032Y-13106661D01*
X18017032Y-13201899D01*
X17969413Y-13344756D01*
X17397984Y-13916184D01*
X18017032Y-13916184D01*
X13367032Y-15816184D02*
X12795603Y-15816184D01*
X13081318Y-15816184D02*
X13081318Y-14816184D01*
X12986079Y-14959042D01*
X12890841Y-15054280D01*
X12795603Y-15101899D01*
G04 #@! TO.C,D3*
X-464984Y-20952280D02*
X-464984Y-19952280D01*
X-226888Y-19952280D01*
X-84031Y-19999900D01*
X11207Y-20095138D01*
X58826Y-20190376D01*
X106445Y-20380852D01*
X106445Y-20523709D01*
X58826Y-20714185D01*
X11207Y-20809423D01*
X-84031Y-20904661D01*
X-226888Y-20952280D01*
X-464984Y-20952280D01*
X439778Y-19952280D02*
X1058826Y-19952280D01*
X725492Y-20333233D01*
X868350Y-20333233D01*
X963588Y-20380852D01*
X1011207Y-20428471D01*
X1058826Y-20523709D01*
X1058826Y-20761804D01*
X1011207Y-20857042D01*
X963588Y-20904661D01*
X868350Y-20952280D01*
X582635Y-20952280D01*
X487397Y-20904661D01*
X439778Y-20857042D01*
X-3591174Y-22852280D02*
X-4162603Y-22852280D01*
X-3876888Y-22852280D02*
X-3876888Y-21852280D01*
X-3972127Y-21995138D01*
X-4067365Y-22090376D01*
X-4162603Y-22137995D01*
G04 #@! TO.C,D4*
X-17434375Y-13943202D02*
X-17434375Y-12943202D01*
X-17196279Y-12943202D01*
X-17053422Y-12990822D01*
X-16958184Y-13086060D01*
X-16910565Y-13181298D01*
X-16862946Y-13371774D01*
X-16862946Y-13514631D01*
X-16910565Y-13705107D01*
X-16958184Y-13800345D01*
X-17053422Y-13895583D01*
X-17196279Y-13943202D01*
X-17434375Y-13943202D01*
X-16005803Y-13276536D02*
X-16005803Y-13943202D01*
X-16243899Y-12895583D02*
X-16481994Y-13609869D01*
X-15862946Y-13609869D01*
X-20560565Y-15843202D02*
X-21131994Y-15843202D01*
X-20846279Y-15843202D02*
X-20846279Y-14843202D01*
X-20941518Y-14986060D01*
X-21036756Y-15081298D01*
X-21131994Y-15128917D01*
G04 #@! TO.C,D5*
X-24484066Y-3990604D02*
X-24484066Y-2990604D01*
X-24245970Y-2990604D01*
X-24103113Y-3038224D01*
X-24007875Y-3133462D01*
X-23960256Y-3228700D01*
X-23912637Y-3419176D01*
X-23912637Y-3562033D01*
X-23960256Y-3752509D01*
X-24007875Y-3847747D01*
X-24103113Y-3942985D01*
X-24245970Y-3990604D01*
X-24484066Y-3990604D01*
X-23007875Y-2990604D02*
X-23484066Y-2990604D01*
X-23531685Y-3466795D01*
X-23484066Y-3419176D01*
X-23388828Y-3371557D01*
X-23150732Y-3371557D01*
X-23055494Y-3419176D01*
X-23007875Y-3466795D01*
X-22960256Y-3562033D01*
X-22960256Y-3800128D01*
X-23007875Y-3895366D01*
X-23055494Y-3942985D01*
X-23150732Y-3990604D01*
X-23388828Y-3990604D01*
X-23484066Y-3942985D01*
X-23531685Y-3895366D01*
X-19310256Y-2090604D02*
X-19881685Y-2090604D01*
X-19595970Y-2090604D02*
X-19595970Y-1090604D01*
X-19691209Y-1233462D01*
X-19786447Y-1328700D01*
X-19881685Y-1376319D01*
G04 #@! TO.C,D6*
X-17488410Y19984364D02*
X-17488410Y20984364D01*
X-17250314Y20984364D01*
X-17107457Y20936744D01*
X-17012219Y20841506D01*
X-16964600Y20746268D01*
X-16916981Y20555792D01*
X-16916981Y20412935D01*
X-16964600Y20222459D01*
X-17012219Y20127221D01*
X-17107457Y20031983D01*
X-17250314Y19984364D01*
X-17488410Y19984364D01*
X-16059838Y20984364D02*
X-16250314Y20984364D01*
X-16345553Y20936744D01*
X-16393172Y20889125D01*
X-16488410Y20746268D01*
X-16536029Y20555792D01*
X-16536029Y20174840D01*
X-16488410Y20079602D01*
X-16440791Y20031983D01*
X-16345553Y19984364D01*
X-16155076Y19984364D01*
X-16059838Y20031983D01*
X-16012219Y20079602D01*
X-15964600Y20174840D01*
X-15964600Y20412935D01*
X-16012219Y20508173D01*
X-16059838Y20555792D01*
X-16155076Y20603411D01*
X-16345553Y20603411D01*
X-16440791Y20555792D01*
X-16488410Y20508173D01*
X-16536029Y20412935D01*
X-20614600Y18084364D02*
X-21186029Y18084364D01*
X-20900314Y18084364D02*
X-20900314Y19084364D01*
X-20995553Y18941506D01*
X-21090791Y18846268D01*
X-21186029Y18798649D01*
G04 #@! TO.C,D7*
X-541431Y27047552D02*
X-541431Y28047552D01*
X-303335Y28047552D01*
X-160478Y27999932D01*
X-65240Y27904694D01*
X-17621Y27809456D01*
X29998Y27618980D01*
X29998Y27476123D01*
X-17621Y27285647D01*
X-65240Y27190409D01*
X-160478Y27095171D01*
X-303335Y27047552D01*
X-541431Y27047552D01*
X363331Y28047552D02*
X1029998Y28047552D01*
X601426Y27047552D01*
X-3667621Y25147552D02*
X-4239050Y25147552D01*
X-3953335Y25147552D02*
X-3953335Y26147552D01*
X-4048574Y26004694D01*
X-4143812Y25909456D01*
X-4239050Y25861837D01*
G04 #@! TO.C,D8*
X18810278Y19694701D02*
X19517384Y20401808D01*
X19685743Y20233449D01*
X19753087Y20098762D01*
X19753087Y19964075D01*
X19719415Y19863060D01*
X19618400Y19694701D01*
X19517384Y19593686D01*
X19349026Y19492670D01*
X19248010Y19458999D01*
X19113323Y19458999D01*
X18978636Y19526342D01*
X18810278Y19694701D01*
X20022461Y19290640D02*
X19988789Y19391655D01*
X19988789Y19458999D01*
X20022461Y19560014D01*
X20056133Y19593686D01*
X20157148Y19627358D01*
X20224491Y19627358D01*
X20325507Y19593686D01*
X20460194Y19458999D01*
X20493865Y19357983D01*
X20493865Y19290640D01*
X20460194Y19189625D01*
X20426522Y19155953D01*
X20325507Y19122281D01*
X20258163Y19122281D01*
X20157148Y19155953D01*
X20022461Y19290640D01*
X19921446Y19324312D01*
X19854102Y19324312D01*
X19753087Y19290640D01*
X19618400Y19155953D01*
X19584728Y19054938D01*
X19584728Y18987594D01*
X19618400Y18886579D01*
X19753087Y18751892D01*
X19854102Y18718220D01*
X19921446Y18718220D01*
X20022461Y18751892D01*
X20157148Y18886579D01*
X20190820Y18987594D01*
X20190820Y19054938D01*
X20157148Y19155953D01*
X15256224Y20561748D02*
X14852163Y20965809D01*
X15054194Y20763779D02*
X15761301Y21470886D01*
X15592942Y21437214D01*
X15458255Y21437214D01*
X15357240Y21470886D01*
G04 #@! TO.C,J1*
X26617241Y10588813D02*
X25927294Y10403942D01*
X25776980Y10412965D01*
X25660337Y10480308D01*
X25577367Y10605973D01*
X25552717Y10697966D01*
X25910134Y9364068D02*
X25762237Y9916026D01*
X25836186Y9640047D02*
X26802112Y9898866D01*
X26639473Y9953885D01*
X26522830Y10021228D01*
X26452185Y10100897D01*
G04 #@! TD*
M02*
