G04 #@! TF.GenerationSoftware,KiCad,Pcbnew,(5.0.1)-4*
G04 #@! TF.CreationDate,2020-03-01T18:01:36+00:00*
G04 #@! TF.ProjectId,neopixels,6E656F706978656C732E6B696361645F,rev?*
G04 #@! TF.SameCoordinates,PX463f660PY4718708*
G04 #@! TF.FileFunction,Paste,Top*
G04 #@! TF.FilePolarity,Positive*
%FSLAX46Y46*%
G04 Gerber Fmt 4.6, Leading zero omitted, Abs format (unit mm)*
G04 Created by KiCad (PCBNEW (5.0.1)-4) date 01/03/2020 18:01:36*
%MOMM*%
%LPD*%
G01*
G04 APERTURE LIST*
%ADD10R,1.500000X1.000000*%
%ADD11C,1.000000*%
%ADD12C,0.100000*%
%ADD13C,0.600000*%
%ADD14C,1.200000*%
G04 APERTURE END LIST*
D10*
G04 #@! TO.C,D1*
X26704000Y-1600000D03*
X26704000Y1600000D03*
X21804000Y-1600000D03*
X21804000Y1600000D03*
G04 #@! TD*
G04 #@! TO.C,D2*
X14781318Y-15363804D03*
X14781318Y-18563804D03*
X19681318Y-15363804D03*
X19681318Y-18563804D03*
G04 #@! TD*
G04 #@! TO.C,D3*
X2723112Y-25599900D03*
X2723112Y-22399900D03*
X-2176888Y-25599900D03*
X-2176888Y-22399900D03*
G04 #@! TD*
G04 #@! TO.C,D4*
X-19146279Y-15390822D03*
X-19146279Y-18590822D03*
X-14246279Y-15390822D03*
X-14246279Y-18590822D03*
G04 #@! TD*
G04 #@! TO.C,D5*
X-26195970Y1561776D03*
X-26195970Y-1638224D03*
X-21295970Y1561776D03*
X-21295970Y-1638224D03*
G04 #@! TD*
G04 #@! TO.C,D6*
X-19200314Y18536744D03*
X-19200314Y15336744D03*
X-14300314Y18536744D03*
X-14300314Y15336744D03*
G04 #@! TD*
G04 #@! TO.C,D7*
X2646665Y22399932D03*
X2646665Y25599932D03*
X-2253335Y22399932D03*
X-2253335Y25599932D03*
G04 #@! TD*
D11*
G04 #@! TO.C,D8*
X16576157Y19881578D03*
D12*
G36*
X15692274Y20058355D02*
X16399380Y20765461D01*
X17460040Y19704801D01*
X16752934Y18997695D01*
X15692274Y20058355D01*
X15692274Y20058355D01*
G37*
D11*
X14313416Y17618837D03*
D12*
G36*
X13429533Y17795614D02*
X14136639Y18502720D01*
X15197299Y17442060D01*
X14490193Y16734954D01*
X13429533Y17795614D01*
X13429533Y17795614D01*
G37*
D11*
X20040980Y16416755D03*
D12*
G36*
X19157097Y16593532D02*
X19864203Y17300638D01*
X20924863Y16239978D01*
X20217757Y15532872D01*
X19157097Y16593532D01*
X19157097Y16593532D01*
G37*
D11*
X17778239Y14154014D03*
D12*
G36*
X16894356Y14330791D02*
X17601462Y15037897D01*
X18662122Y13977237D01*
X17955016Y13270131D01*
X16894356Y14330791D01*
X16894356Y14330791D01*
G37*
G04 #@! TD*
G04 #@! TO.C,J1*
G36*
X22032789Y10349359D02*
X22047271Y10346724D01*
X22061426Y10342682D01*
X22075116Y10337272D01*
X22088210Y10330546D01*
X22100582Y10322569D01*
X22112112Y10313418D01*
X22122690Y10303181D01*
X22132213Y10291956D01*
X22140590Y10279852D01*
X22147741Y10266985D01*
X22153596Y10253480D01*
X22158099Y10239464D01*
X22235744Y9949686D01*
X22238852Y9935298D01*
X22240534Y9920674D01*
X22240775Y9905956D01*
X22239572Y9891285D01*
X22236936Y9876802D01*
X22232894Y9862648D01*
X22227484Y9848958D01*
X22220759Y9835864D01*
X22212782Y9823492D01*
X22203631Y9811962D01*
X22193394Y9801384D01*
X22182169Y9791861D01*
X22170065Y9783483D01*
X22157198Y9776333D01*
X22143692Y9770478D01*
X22129678Y9765975D01*
X20922271Y9442451D01*
X20907882Y9439344D01*
X20893259Y9437661D01*
X20878540Y9437420D01*
X20863869Y9438623D01*
X20849387Y9441258D01*
X20835232Y9445300D01*
X20821542Y9450710D01*
X20808448Y9457436D01*
X20796076Y9465413D01*
X20784546Y9474564D01*
X20773968Y9484801D01*
X20764445Y9496026D01*
X20756068Y9508130D01*
X20748917Y9520997D01*
X20743062Y9534502D01*
X20738559Y9548518D01*
X20660914Y9838296D01*
X20657806Y9852684D01*
X20656124Y9867308D01*
X20655883Y9882026D01*
X20657086Y9896697D01*
X20659722Y9911180D01*
X20663764Y9925334D01*
X20669174Y9939024D01*
X20675899Y9952118D01*
X20683876Y9964490D01*
X20693027Y9976020D01*
X20703264Y9986598D01*
X20714489Y9996121D01*
X20726593Y10004499D01*
X20739460Y10011649D01*
X20752966Y10017504D01*
X20766980Y10022007D01*
X21974387Y10345531D01*
X21988776Y10348638D01*
X22003399Y10350321D01*
X22018118Y10350562D01*
X22032789Y10349359D01*
X22032789Y10349359D01*
G37*
D13*
X21448329Y9893991D03*
D12*
G36*
X22291608Y9383433D02*
X22306090Y9380798D01*
X22320245Y9376756D01*
X22333935Y9371346D01*
X22347029Y9364620D01*
X22359401Y9356643D01*
X22370931Y9347492D01*
X22381509Y9337255D01*
X22391032Y9326030D01*
X22399409Y9313926D01*
X22406560Y9301059D01*
X22412415Y9287554D01*
X22416918Y9273538D01*
X22494563Y8983760D01*
X22497671Y8969372D01*
X22499353Y8954748D01*
X22499594Y8940030D01*
X22498391Y8925359D01*
X22495755Y8910876D01*
X22491713Y8896722D01*
X22486303Y8883032D01*
X22479578Y8869938D01*
X22471601Y8857566D01*
X22462450Y8846036D01*
X22452213Y8835458D01*
X22440988Y8825935D01*
X22428884Y8817557D01*
X22416017Y8810407D01*
X22402511Y8804552D01*
X22388497Y8800049D01*
X21181090Y8476525D01*
X21166701Y8473418D01*
X21152078Y8471735D01*
X21137359Y8471494D01*
X21122688Y8472697D01*
X21108206Y8475332D01*
X21094051Y8479374D01*
X21080361Y8484784D01*
X21067267Y8491510D01*
X21054895Y8499487D01*
X21043365Y8508638D01*
X21032787Y8518875D01*
X21023264Y8530100D01*
X21014887Y8542204D01*
X21007736Y8555071D01*
X21001881Y8568576D01*
X20997378Y8582592D01*
X20919733Y8872370D01*
X20916625Y8886758D01*
X20914943Y8901382D01*
X20914702Y8916100D01*
X20915905Y8930771D01*
X20918541Y8945254D01*
X20922583Y8959408D01*
X20927993Y8973098D01*
X20934718Y8986192D01*
X20942695Y8998564D01*
X20951846Y9010094D01*
X20962083Y9020672D01*
X20973308Y9030195D01*
X20985412Y9038573D01*
X20998279Y9045723D01*
X21011785Y9051578D01*
X21025799Y9056081D01*
X22233206Y9379605D01*
X22247595Y9382712D01*
X22262218Y9384395D01*
X22276937Y9384636D01*
X22291608Y9383433D01*
X22291608Y9383433D01*
G37*
D13*
X21707148Y8928065D03*
D12*
G36*
X22550427Y8417507D02*
X22564909Y8414872D01*
X22579064Y8410830D01*
X22592754Y8405420D01*
X22605848Y8398694D01*
X22618220Y8390717D01*
X22629750Y8381566D01*
X22640328Y8371329D01*
X22649851Y8360104D01*
X22658228Y8348000D01*
X22665379Y8335133D01*
X22671234Y8321628D01*
X22675737Y8307612D01*
X22753382Y8017834D01*
X22756490Y8003446D01*
X22758172Y7988822D01*
X22758413Y7974104D01*
X22757210Y7959433D01*
X22754574Y7944950D01*
X22750532Y7930796D01*
X22745122Y7917106D01*
X22738397Y7904012D01*
X22730420Y7891640D01*
X22721269Y7880110D01*
X22711032Y7869532D01*
X22699807Y7860009D01*
X22687703Y7851631D01*
X22674836Y7844481D01*
X22661330Y7838626D01*
X22647316Y7834123D01*
X21439909Y7510599D01*
X21425520Y7507492D01*
X21410897Y7505809D01*
X21396178Y7505568D01*
X21381507Y7506771D01*
X21367025Y7509406D01*
X21352870Y7513448D01*
X21339180Y7518858D01*
X21326086Y7525584D01*
X21313714Y7533561D01*
X21302184Y7542712D01*
X21291606Y7552949D01*
X21282083Y7564174D01*
X21273706Y7576278D01*
X21266555Y7589145D01*
X21260700Y7602650D01*
X21256197Y7616666D01*
X21178552Y7906444D01*
X21175444Y7920832D01*
X21173762Y7935456D01*
X21173521Y7950174D01*
X21174724Y7964845D01*
X21177360Y7979328D01*
X21181402Y7993482D01*
X21186812Y8007172D01*
X21193537Y8020266D01*
X21201514Y8032638D01*
X21210665Y8044168D01*
X21220902Y8054746D01*
X21232127Y8064269D01*
X21244231Y8072647D01*
X21257098Y8079797D01*
X21270604Y8085652D01*
X21284618Y8090155D01*
X22492025Y8413679D01*
X22506414Y8416786D01*
X22521037Y8418469D01*
X22535756Y8418710D01*
X22550427Y8417507D01*
X22550427Y8417507D01*
G37*
D13*
X21965967Y7962139D03*
D12*
G36*
X24120724Y12557380D02*
X24144862Y12552988D01*
X24168452Y12546252D01*
X24191269Y12537235D01*
X24213092Y12526026D01*
X24233712Y12512731D01*
X24252929Y12497479D01*
X24270558Y12480417D01*
X24286430Y12461710D01*
X24300393Y12441537D01*
X24312310Y12420092D01*
X24322069Y12397582D01*
X24329573Y12374225D01*
X24510747Y11698075D01*
X24515927Y11674094D01*
X24518731Y11649721D01*
X24519132Y11625190D01*
X24517127Y11600739D01*
X24512735Y11576601D01*
X24505999Y11553011D01*
X24496982Y11530194D01*
X24485773Y11508371D01*
X24472478Y11487751D01*
X24457226Y11468534D01*
X24440164Y11450905D01*
X24421457Y11435032D01*
X24401283Y11421070D01*
X24379839Y11409153D01*
X24357329Y11399394D01*
X24333972Y11391890D01*
X23078266Y11055424D01*
X23054285Y11050244D01*
X23029912Y11047440D01*
X23005381Y11047039D01*
X22980930Y11049044D01*
X22956792Y11053436D01*
X22933202Y11060172D01*
X22910385Y11069189D01*
X22888562Y11080398D01*
X22867942Y11093693D01*
X22848725Y11108945D01*
X22831096Y11126007D01*
X22815224Y11144714D01*
X22801261Y11164887D01*
X22789344Y11186332D01*
X22779585Y11208842D01*
X22772081Y11232199D01*
X22590907Y11908349D01*
X22585727Y11932330D01*
X22582923Y11956703D01*
X22582522Y11981234D01*
X22584527Y12005685D01*
X22588919Y12029823D01*
X22595655Y12053413D01*
X22604672Y12076230D01*
X22615881Y12098053D01*
X22629176Y12118673D01*
X22644428Y12137890D01*
X22661490Y12155519D01*
X22680197Y12171392D01*
X22700371Y12185354D01*
X22721815Y12197271D01*
X22744325Y12207030D01*
X22767682Y12214534D01*
X24023388Y12551000D01*
X24047369Y12556180D01*
X24071742Y12558984D01*
X24096273Y12559385D01*
X24120724Y12557380D01*
X24120724Y12557380D01*
G37*
D14*
X23550827Y11803212D03*
D12*
G36*
X25311292Y8114121D02*
X25335430Y8109729D01*
X25359020Y8102993D01*
X25381837Y8093976D01*
X25403660Y8082767D01*
X25424280Y8069472D01*
X25443497Y8054220D01*
X25461126Y8037158D01*
X25476998Y8018451D01*
X25490961Y7998278D01*
X25502878Y7976833D01*
X25512637Y7954323D01*
X25520141Y7930966D01*
X25701315Y7254816D01*
X25706495Y7230835D01*
X25709299Y7206462D01*
X25709700Y7181931D01*
X25707695Y7157480D01*
X25703303Y7133342D01*
X25696567Y7109752D01*
X25687550Y7086935D01*
X25676341Y7065112D01*
X25663046Y7044492D01*
X25647794Y7025275D01*
X25630732Y7007646D01*
X25612025Y6991773D01*
X25591851Y6977811D01*
X25570407Y6965894D01*
X25547897Y6956135D01*
X25524540Y6948631D01*
X24268834Y6612165D01*
X24244853Y6606985D01*
X24220480Y6604181D01*
X24195949Y6603780D01*
X24171498Y6605785D01*
X24147360Y6610177D01*
X24123770Y6616913D01*
X24100953Y6625930D01*
X24079130Y6637139D01*
X24058510Y6650434D01*
X24039293Y6665686D01*
X24021664Y6682748D01*
X24005792Y6701455D01*
X23991829Y6721628D01*
X23979912Y6743073D01*
X23970153Y6765583D01*
X23962649Y6788940D01*
X23781475Y7465090D01*
X23776295Y7489071D01*
X23773491Y7513444D01*
X23773090Y7537975D01*
X23775095Y7562426D01*
X23779487Y7586564D01*
X23786223Y7610154D01*
X23795240Y7632971D01*
X23806449Y7654794D01*
X23819744Y7675414D01*
X23834996Y7694631D01*
X23852058Y7712260D01*
X23870765Y7728133D01*
X23890939Y7742095D01*
X23912383Y7754012D01*
X23934893Y7763771D01*
X23958250Y7771275D01*
X25213956Y8107741D01*
X25237937Y8112921D01*
X25262310Y8115725D01*
X25286841Y8116126D01*
X25311292Y8114121D01*
X25311292Y8114121D01*
G37*
D14*
X24741395Y7359953D03*
G04 #@! TD*
M02*
